<svg xmlns="http://www.w3.org/2000/svg" xmlns:xlink="http://www.w3.org/1999/xlink" contentStyleType="text/css" data-diagram-type="SEQUENCE" height="642px" preserveAspectRatio="none" style="width:771px;height:642px;background:#FFFFFF;" version="1.1" viewBox="0 0 771 642" width="771px" zoomAndPan="magnify"><title>Workflow Execution Flow</title><defs/><g><text fill="#000000" font-family="sans-serif" font-size="14" font-weight="bold" lengthAdjust="spacing" textLength="198.8096" x="287.6436" y="27.9951">Workflow Execution Flow</text><g><title>Frontend</title><rect fill="#FFFFFF" height="216.9297" style="stroke:#181818;stroke-width:1;" width="10" x="268.3652" y="149.7266"/></g><g><title>Backend</title><rect fill="#FFFFFF" height="158.6641" style="stroke:#181818;stroke-width:1;" width="10" x="465.811" y="178.8594"/></g><g><title>Backend</title><rect fill="#FFFFFF" height="87.3984" style="stroke:#181818;stroke-width:1;" width="10" x="465.811" y="419.9219"/></g><rect fill="none" height="162.7969" style="stroke:#000000;stroke-width:1.5;" width="755.0967" x="10" y="381.6563"/><g><title>User</title><rect fill="#000000" fill-opacity="0.00000" height="442.8594" width="8" x="34.9551" y="118.5938"/><line style="stroke:#181818;stroke-width:0.5;stroke-dasharray:5.0,5.0;" x1="38" x2="38" y1="118.5938" y2="561.4531"/></g><g><title>Frontend</title><rect fill="#000000" fill-opacity="0.00000" height="442.8594" width="8" x="269.3652" y="118.5938"/><line style="stroke:#181818;stroke-width:0.5;stroke-dasharray:5.0,5.0;" x1="272.8105" x2="272.8105" y1="118.5938" y2="561.4531"/></g><g><title>Backend</title><rect fill="#000000" fill-opacity="0.00000" height="442.8594" width="8" x="466.811" y="118.5938"/><line style="stroke:#181818;stroke-width:0.5;stroke-dasharray:5.0,5.0;" x1="470.6304" x2="470.6304" y1="118.5938" y2="561.4531"/></g><g><title>MinIO</title><rect fill="#000000" fill-opacity="0.00000" height="442.8594" width="8" x="667.3164" y="118.5938"/><line style="stroke:#181818;stroke-width:0.5;stroke-dasharray:5.0,5.0;" x1="670.3213" x2="670.3213" y1="118.5938" y2="561.4531"/></g><g><title>Argo</title><rect fill="#000000" fill-opacity="0.00000" height="442.8594" width="8" x="727.7041" y="118.5938"/><line style="stroke:#181818;stroke-width:0.5;stroke-dasharray:5.0,5.0;" x1="731.3115" x2="731.3115" y1="118.5938" y2="561.4531"/></g><g class="participant participant-head" data-participant="U"><text fill="#000000" font-family="sans-serif" font-size="14" lengthAdjust="spacing" textLength="31.9102" x="20" y="115.292">User</text><ellipse cx="38.9551" cy="50.7969" fill="#E2E2F0" rx="8" ry="8" style="stroke:#181818;stroke-width:0.5;"/><path d="M38.9551,58.7969 L38.9551,85.7969 M25.9551,66.7969 L51.9551,66.7969 M38.9551,85.7969 L25.9551,100.7969 M38.9551,85.7969 L51.9551,100.7969" fill="none" style="stroke:#181818;stroke-width:0.5;"/></g><g class="participant participant-tail" data-participant="U"><text fill="#000000" font-family="sans-serif" font-size="14" lengthAdjust="spacing" textLength="31.9102" x="20" y="573.4482">User</text><ellipse cx="38.9551" cy="585.25" fill="#E2E2F0" rx="8" ry="8" style="stroke:#181818;stroke-width:0.5;"/><path d="M38.9551,593.25 L38.9551,620.25 M25.9551,601.25 L51.9551,601.25 M38.9551,620.25 L25.9551,635.25 M38.9551,620.25 L51.9551,635.25" fill="none" style="stroke:#181818;stroke-width:0.5;"/></g><g class="participant participant-head" data-participant="F"><rect fill="#E2E2F0" height="30.2969" rx="2.5" ry="2.5" style="stroke:#181818;stroke-width:0.5;" width="77.1094" x="234.8105" y="87.2969"/><text fill="#000000" font-family="sans-serif" font-size="14" lengthAdjust="spacing" textLength="63.1094" x="241.8105" y="107.292">Frontend</text></g><g class="participant participant-tail" data-participant="F"><rect fill="#E2E2F0" height="30.2969" rx="2.5" ry="2.5" style="stroke:#181818;stroke-width:0.5;" width="77.1094" x="234.8105" y="560.4531"/><text fill="#000000" font-family="sans-serif" font-size="14" lengthAdjust="spacing" textLength="63.1094" x="241.8105" y="580.4482">Frontend</text></g><g class="participant participant-head" data-participant="B"><rect fill="#E2E2F0" height="30.2969" rx="2.5" ry="2.5" style="stroke:#181818;stroke-width:0.5;" width="74.3613" x="433.6304" y="87.2969"/><text fill="#000000" font-family="sans-serif" font-size="14" lengthAdjust="spacing" textLength="60.3613" x="440.6304" y="107.292">Backend</text></g><g class="participant participant-tail" data-participant="B"><rect fill="#E2E2F0" height="30.2969" rx="2.5" ry="2.5" style="stroke:#181818;stroke-width:0.5;" width="74.3613" x="433.6304" y="560.4531"/><text fill="#000000" font-family="sans-serif" font-size="14" lengthAdjust="spacing" textLength="60.3613" x="440.6304" y="580.4482">Backend</text></g><g class="participant participant-head" data-participant="M"><rect fill="#E2E2F0" height="30.2969" rx="2.5" ry="2.5" style="stroke:#181818;stroke-width:0.5;" width="53.9902" x="644.3213" y="87.2969"/><text fill="#000000" font-family="sans-serif" font-size="14" lengthAdjust="spacing" textLength="39.9902" x="651.3213" y="107.292">MinIO</text></g><g class="participant participant-tail" data-participant="M"><rect fill="#E2E2F0" height="30.2969" rx="2.5" ry="2.5" style="stroke:#181818;stroke-width:0.5;" width="53.9902" x="644.3213" y="560.4531"/><text fill="#000000" font-family="sans-serif" font-size="14" lengthAdjust="spacing" textLength="39.9902" x="651.3213" y="580.4482">MinIO</text></g><g class="participant participant-head" data-participant="A"><rect fill="#E2E2F0" height="30.2969" rx="2.5" ry="2.5" style="stroke:#181818;stroke-width:0.5;" width="46.7852" x="708.3115" y="87.2969"/><text fill="#000000" font-family="sans-serif" font-size="14" lengthAdjust="spacing" textLength="32.7852" x="715.3115" y="107.292">Argo</text></g><g class="participant participant-tail" data-participant="A"><rect fill="#E2E2F0" height="30.2969" rx="2.5" ry="2.5" style="stroke:#181818;stroke-width:0.5;" width="46.7852" x="708.3115" y="560.4531"/><text fill="#000000" font-family="sans-serif" font-size="14" lengthAdjust="spacing" textLength="32.7852" x="715.3115" y="580.4482">Argo</text></g><g><title>Frontend</title><rect fill="#FFFFFF" height="216.9297" style="stroke:#181818;stroke-width:1;" width="10" x="268.3652" y="149.7266"/></g><g><title>Backend</title><rect fill="#FFFFFF" height="158.6641" style="stroke:#181818;stroke-width:1;" width="10" x="465.811" y="178.8594"/></g><g><title>Backend</title><rect fill="#FFFFFF" height="87.3984" style="stroke:#181818;stroke-width:1;" width="10" x="465.811" y="419.9219"/></g><g class="message" data-participant-1="U" data-participant-2="F"><polygon fill="#181818" points="256.3652,145.7266,266.3652,149.7266,256.3652,153.7266,260.3652,149.7266" style="stroke:#181818;stroke-width:1;"/><line style="stroke:#181818;stroke-width:1;" x1="38.9551" x2="262.3652" y1="149.7266" y2="149.7266"/><text fill="#000000" font-family="sans-serif" font-size="13" lengthAdjust="spacing" textLength="156.0508" x="45.9551" y="144.6606">Designs visual workflow</text></g><g class="message" data-participant-1="F" data-participant-2="B"><polygon fill="#181818" points="453.811,174.8594,463.811,178.8594,453.811,182.8594,457.811,178.8594" style="stroke:#181818;stroke-width:1;"/><line style="stroke:#181818;stroke-width:1;" x1="278.3652" x2="459.811" y1="178.8594" y2="178.8594"/><text fill="#000000" font-family="sans-serif" font-size="13" lengthAdjust="spacing" textLength="150.0269" x="285.3652" y="173.7935">POST /workflow/submit</text></g><g class="message" data-participant-1="B" data-participant-2="B"><line style="stroke:#181818;stroke-width:1;" x1="475.811" x2="517.811" y1="207.9922" y2="207.9922"/><line style="stroke:#181818;stroke-width:1;" x1="517.811" x2="517.811" y1="207.9922" y2="220.9922"/><line style="stroke:#181818;stroke-width:1;" x1="476.811" x2="517.811" y1="220.9922" y2="220.9922"/><polygon fill="#181818" points="486.811,216.9922,476.811,220.9922,486.811,224.9922,482.811,220.9922" style="stroke:#181818;stroke-width:1;"/><text fill="#000000" font-family="sans-serif" font-size="13" lengthAdjust="spacing" textLength="166.5054" x="482.811" y="202.9263">Translates graph to YAML</text></g><g class="message" data-participant-1="B" data-participant-2="M"><polygon fill="#181818" points="659.3164,246.125,669.3164,250.125,659.3164,254.125,663.3164,250.125" style="stroke:#181818;stroke-width:1;"/><line style="stroke:#181818;stroke-width:1;" x1="475.811" x2="665.3164" y1="250.125" y2="250.125"/><text fill="#000000" font-family="sans-serif" font-size="13" lengthAdjust="spacing" textLength="141.9019" x="482.811" y="245.0591">Stores YAML manifest</text></g><g class="message" data-participant-1="B" data-participant-2="A"><polygon fill="#181818" points="719.7041,275.2578,729.7041,279.2578,719.7041,283.2578,723.7041,279.2578" style="stroke:#181818;stroke-width:1;"/><line style="stroke:#181818;stroke-width:1;" x1="475.811" x2="725.7041" y1="279.2578" y2="279.2578"/><text fill="#000000" font-family="sans-serif" font-size="13" lengthAdjust="spacing" textLength="176.7188" x="482.811" y="274.1919">argo submit workflow.yaml</text></g><g class="message" data-participant-1="A" data-participant-2="B"><polygon fill="#181818" points="486.811,304.3906,476.811,308.3906,486.811,312.3906,482.811,308.3906" style="stroke:#181818;stroke-width:1;"/><line style="stroke:#181818;stroke-width:1;stroke-dasharray:2.0,2.0;" x1="480.811" x2="730.7041" y1="308.3906" y2="308.3906"/><text fill="#000000" font-family="sans-serif" font-size="13" lengthAdjust="spacing" textLength="96.5859" x="492.811" y="303.3247">workflowName</text></g><g class="message" data-participant-1="B" data-participant-2="F"><polygon fill="#181818" points="289.3652,333.5234,279.3652,337.5234,289.3652,341.5234,285.3652,337.5234" style="stroke:#181818;stroke-width:1;"/><line style="stroke:#181818;stroke-width:1;stroke-dasharray:2.0,2.0;" x1="283.3652" x2="469.811" y1="337.5234" y2="337.5234"/><text fill="#000000" font-family="sans-serif" font-size="13" lengthAdjust="spacing" textLength="163.4458" x="295.3652" y="332.4575">200 OK + workflowName</text></g><g class="message" data-participant-1="F" data-participant-2="U"><polygon fill="#181818" points="49.9551,362.6563,39.9551,366.6563,49.9551,370.6563,45.9551,366.6563" style="stroke:#181818;stroke-width:1;"/><line style="stroke:#181818;stroke-width:1;stroke-dasharray:2.0,2.0;" x1="43.9551" x2="272.3652" y1="366.6563" y2="366.6563"/><text fill="#000000" font-family="sans-serif" font-size="13" lengthAdjust="spacing" textLength="205.4102" x="55.9551" y="361.5903">Shows submission confirmation</text></g><path d="M10,381.6563 L86.624,381.6563 L86.624,388.7891 L76.624,398.7891 L10,398.7891 L10,381.6563" fill="#EEEEEE" style="stroke:#000000;stroke-width:1.5;"/><rect fill="none" height="162.7969" style="stroke:#000000;stroke-width:1.5;" width="755.0967" x="10" y="381.6563"/><text fill="#000000" font-family="sans-serif" font-size="13" font-weight="bold" lengthAdjust="spacing" textLength="31.624" x="25" y="394.7231">loop</text><text fill="#000000" font-family="sans-serif" font-size="11" font-weight="bold" lengthAdjust="spacing" textLength="223.3408" x="101.624" y="393.8667">[Polling (until workflow completes)]</text><g class="message" data-participant-1="F" data-participant-2="B"><polygon fill="#181818" points="453.811,415.9219,463.811,419.9219,453.811,423.9219,457.811,419.9219" style="stroke:#181818;stroke-width:1;"/><line style="stroke:#181818;stroke-width:1;" x1="273.3652" x2="459.811" y1="419.9219" y2="419.9219"/><text fill="#000000" font-family="sans-serif" font-size="13" lengthAdjust="spacing" textLength="137.2998" x="280.3652" y="414.856">GET /workflow/status</text></g><g class="message" data-participant-1="B" data-participant-2="A"><polygon fill="#181818" points="719.7041,445.0547,729.7041,449.0547,719.7041,453.0547,723.7041,449.0547" style="stroke:#181818;stroke-width:1;"/><line style="stroke:#181818;stroke-width:1;" x1="475.811" x2="725.7041" y1="449.0547" y2="449.0547"/><text fill="#000000" font-family="sans-serif" font-size="13" lengthAdjust="spacing" textLength="157.5361" x="482.811" y="443.9888">GET /workflows/{name}</text></g><g class="message" data-participant-1="A" data-participant-2="B"><polygon fill="#181818" points="486.811,474.1875,476.811,478.1875,486.811,482.1875,482.811,478.1875" style="stroke:#181818;stroke-width:1;"/><line style="stroke:#181818;stroke-width:1;stroke-dasharray:2.0,2.0;" x1="480.811" x2="730.7041" y1="478.1875" y2="478.1875"/><text fill="#000000" font-family="sans-serif" font-size="13" lengthAdjust="spacing" textLength="93.4185" x="492.811" y="473.1216">Current status</text></g><g class="message" data-participant-1="B" data-participant-2="F"><polygon fill="#181818" points="284.3652,503.3203,274.3652,507.3203,284.3652,511.3203,280.3652,507.3203" style="stroke:#181818;stroke-width:1;"/><line style="stroke:#181818;stroke-width:1;stroke-dasharray:2.0,2.0;" x1="278.3652" x2="469.811" y1="507.3203" y2="507.3203"/><text fill="#000000" font-family="sans-serif" font-size="13" lengthAdjust="spacing" textLength="103.7271" x="290.3652" y="502.2544">Status per node</text></g><g class="message" data-participant-1="F" data-participant-2="U"><polygon fill="#181818" points="49.9551,532.4531,39.9551,536.4531,49.9551,540.4531,45.9551,536.4531" style="stroke:#181818;stroke-width:1;"/><line style="stroke:#181818;stroke-width:1;stroke-dasharray:2.0,2.0;" x1="43.9551" x2="272.3652" y1="536.4531" y2="536.4531"/><text fill="#000000" font-family="sans-serif" font-size="13" lengthAdjust="spacing" textLength="183.46" x="55.9551" y="531.3872">Updates UI with node states</text></g><!--SRC=[LLB1JiCm3BtdAwoTG0WsSUI0rCAA9YYRj5M8OsYpBbgQL8cxWX3_ZfErQvkR_Pxjz-oWH2NWmzZZNfaMbjyYRr0Q3Gc5ZF4SZONC2GlSGSPgRb7cikOQOPPOer7eOkQnP8h5F3_sK3o5KgbNwm2aKo2ofGdvYB4CRXyXWGTu5awMsi59keOhQ3kbNfaySHGqEF7ScBYRzNO7yvuoTyrN9N5WnYpkcJlBjLEKT51QNXy03Nn6wTkPaH9ZIyO9zKcek9PxuV2CHeHoaWhd_XT9Tp-yKYo2ssv6dt_dbV2LdQ7xnGBMht0pnGinafa4SkPL74phpeESysV9ZTvBMt5_et5HmfWofeQDKKhg4guQZN9O5zLLjHBazve1lSlANfQJZI77nWN6I8uFByud1Mx-gqdzNw0CpfyQQmLTTDHkyByDIQZfIsbJY81Et7VwkWraTH7EbAsWbNW8DQ6nS8m-s3y0]--></g></svg>