<svg xmlns="http://www.w3.org/2000/svg" xmlns:xlink="http://www.w3.org/1999/xlink" contentStyleType="text/css" data-diagram-type="SEQUENCE" height="749px" preserveAspectRatio="none" style="width:632px;height:749px;background:#FFFFFF;" version="1.1" viewBox="0 0 632 749" width="632px" zoomAndPan="magnify"><title>Drag and Drop - Node Creation</title><defs/><g><text fill="#000000" font-family="sans-serif" font-size="14" font-weight="bold" lengthAdjust="spacing" textLength="243.8242" x="195.9482" y="27.9951">Drag and Drop - Node Creation</text><g><title>Sidebar</title><rect fill="#FFFFFF" height="86.3984" style="stroke:#181818;stroke-width:1;" width="10" x="215.5859" y="239.4219"/></g><g><title>Canvas</title><rect fill="#FFFFFF" height="200.9297" style="stroke:#181818;stroke-width:1;" width="10" x="417.3291" y="354.9531"/></g><g><title>User</title><rect fill="#000000" fill-opacity="0.00000" height="533.5234" width="8" x="19.9551" y="120.8906"/><line style="stroke:#181818;stroke-width:0.5;stroke-dasharray:5.0,5.0;" x1="23" x2="23" y1="120.8906" y2="654.4141"/></g><g><title>Sidebar</title><rect fill="#000000" fill-opacity="0.00000" height="533.5234" width="8" x="216.5859" y="120.8906"/><line style="stroke:#181818;stroke-width:0.5;stroke-dasharray:5.0,5.0;" x1="220.2417" x2="220.2417" y1="120.8906" y2="654.4141"/></g><g><title>Canvas</title><rect fill="#000000" fill-opacity="0.00000" height="533.5234" width="8" x="418.3291" y="120.8906"/><line style="stroke:#181818;stroke-width:0.5;stroke-dasharray:5.0,5.0;" x1="421.6099" x2="421.6099" y1="120.8906" y2="654.4141"/></g><g><title>Template</title><rect fill="#000000" fill-opacity="0.00000" height="533.5234" width="8" x="591.5903" y="120.8906"/><line style="stroke:#181818;stroke-width:0.5;stroke-dasharray:5.0,5.0;" x1="595.46" x2="595.46" y1="120.8906" y2="654.4141"/></g><g class="participant participant-head" data-participant="User"><text fill="#000000" font-family="sans-serif" font-size="14" lengthAdjust="spacing" textLength="31.9102" x="5" y="117.5889">User</text><ellipse cx="23.9551" cy="53.0938" fill="#E2E2F0" rx="8" ry="8" style="stroke:#181818;stroke-width:0.5;"/><path d="M23.9551,61.0938 L23.9551,88.0938 M10.9551,69.0938 L36.9551,69.0938 M23.9551,88.0938 L10.9551,103.0938 M23.9551,88.0938 L36.9551,103.0938" fill="none" style="stroke:#181818;stroke-width:0.5;"/></g><g class="participant participant-tail" data-participant="User"><text fill="#000000" font-family="sans-serif" font-size="14" lengthAdjust="spacing" textLength="31.9102" x="5" y="666.4092">User</text><ellipse cx="23.9551" cy="678.2109" fill="#E2E2F0" rx="8" ry="8" style="stroke:#181818;stroke-width:0.5;"/><path d="M23.9551,686.2109 L23.9551,713.2109 M10.9551,694.2109 L36.9551,694.2109 M23.9551,713.2109 L10.9551,728.2109 M23.9551,713.2109 L36.9551,728.2109" fill="none" style="stroke:#181818;stroke-width:0.5;"/></g><g class="participant participant-head" data-participant="Sidebar"><rect fill="#E3F2FD" height="46.5938" rx="2.5" ry="2.5" style="stroke:#1565C0;stroke-width:0.5;" width="78.6885" x="181.2417" y="73.2969"/><text fill="#000000" font-family="sans-serif" font-size="14" lengthAdjust="spacing" textLength="53.498" x="193.8369" y="93.292">Sidebar</text><text fill="#000000" font-family="sans-serif" font-size="14" lengthAdjust="spacing" textLength="64.6885" x="188.2417" y="109.5889">(Catalog)</text></g><g class="participant participant-tail" data-participant="Sidebar"><rect fill="#E3F2FD" height="46.5938" rx="2.5" ry="2.5" style="stroke:#1565C0;stroke-width:0.5;" width="78.6885" x="181.2417" y="653.4141"/><text fill="#000000" font-family="sans-serif" font-size="14" lengthAdjust="spacing" textLength="53.498" x="193.8369" y="673.4092">Sidebar</text><text fill="#000000" font-family="sans-serif" font-size="14" lengthAdjust="spacing" textLength="64.6885" x="188.2417" y="689.7061">(Catalog)</text></g><g class="participant participant-head" data-participant="Canvas"><rect fill="#E3F2FD" height="46.5938" rx="2.5" ry="2.5" style="stroke:#1565C0;stroke-width:0.5;" width="101.4385" x="371.6099" y="73.2969"/><text fill="#000000" font-family="sans-serif" font-size="14" lengthAdjust="spacing" textLength="51.3857" x="396.6362" y="93.292">Canvas</text><text fill="#000000" font-family="sans-serif" font-size="14" lengthAdjust="spacing" textLength="87.4385" x="378.6099" y="109.5889">(React Flow)</text></g><g class="participant participant-tail" data-participant="Canvas"><rect fill="#E3F2FD" height="46.5938" rx="2.5" ry="2.5" style="stroke:#1565C0;stroke-width:0.5;" width="101.4385" x="371.6099" y="653.4141"/><text fill="#000000" font-family="sans-serif" font-size="14" lengthAdjust="spacing" textLength="51.3857" x="396.6362" y="673.4092">Canvas</text><text fill="#000000" font-family="sans-serif" font-size="14" lengthAdjust="spacing" textLength="87.4385" x="378.6099" y="689.7061">(React Flow)</text></g><g class="participant participant-head" data-participant="Templates"><text fill="#000000" font-family="sans-serif" font-size="14" lengthAdjust="spacing" textLength="66.2607" x="559.46" y="101.292">Template</text><text fill="#000000" font-family="sans-serif" font-size="14" lengthAdjust="spacing" textLength="38.7871" x="573.1968" y="117.5889">Index</text><path d="M577.5903,52.2969 C577.5903,42.2969 595.5903,42.2969 595.5903,42.2969 C595.5903,42.2969 613.5903,42.2969 613.5903,52.2969 L613.5903,78.2969 C613.5903,88.2969 595.5903,88.2969 595.5903,88.2969 C595.5903,88.2969 577.5903,88.2969 577.5903,78.2969 L577.5903,52.2969" fill="#E2E2F0" style="stroke:#181818;stroke-width:1.5;"/><path d="M577.5903,52.2969 C577.5903,62.2969 595.5903,62.2969 595.5903,62.2969 C595.5903,62.2969 613.5903,62.2969 613.5903,52.2969" fill="none" style="stroke:#181818;stroke-width:1.5;"/></g><g class="participant participant-tail" data-participant="Templates"><text fill="#000000" font-family="sans-serif" font-size="14" lengthAdjust="spacing" textLength="66.2607" x="559.46" y="666.4092">Template</text><text fill="#000000" font-family="sans-serif" font-size="14" lengthAdjust="spacing" textLength="38.7871" x="573.1968" y="682.7061">Index</text><path d="M577.5903,696.0078 C577.5903,686.0078 595.5903,686.0078 595.5903,686.0078 C595.5903,686.0078 613.5903,686.0078 613.5903,696.0078 L613.5903,722.0078 C613.5903,732.0078 595.5903,732.0078 595.5903,732.0078 C595.5903,732.0078 577.5903,732.0078 577.5903,722.0078 L577.5903,696.0078" fill="#E2E2F0" style="stroke:#181818;stroke-width:1.5;"/><path d="M577.5903,696.0078 C577.5903,706.0078 595.5903,706.0078 595.5903,706.0078 C595.5903,706.0078 613.5903,706.0078 613.5903,696.0078" fill="none" style="stroke:#181818;stroke-width:1.5;"/></g><g><title>Sidebar</title><rect fill="#FFFFFF" height="86.3984" style="stroke:#181818;stroke-width:1;" width="10" x="215.5859" y="239.4219"/></g><g><title>Canvas</title><rect fill="#FFFFFF" height="200.9297" style="stroke:#181818;stroke-width:1;" width="10" x="417.3291" y="354.9531"/></g><g class="message" data-participant-1="User" data-participant-2="Sidebar"><polygon fill="#181818" points="208.5859,148.0234,218.5859,152.0234,208.5859,156.0234,212.5859,152.0234" style="stroke:#181818;stroke-width:1;"/><line style="stroke:#181818;stroke-width:1;" x1="23.9551" x2="214.5859" y1="152.0234" y2="152.0234"/><text fill="#000000" font-family="sans-serif" font-size="13" lengthAdjust="spacing" textLength="172.6309" x="30.9551" y="146.9575">Browse nodes by category</text></g><g class="message" data-participant-1="Sidebar" data-participant-2="Templates"><polygon fill="#181818" points="583.5903,177.1563,593.5903,181.1563,583.5903,185.1563,587.5903,181.1563" style="stroke:#181818;stroke-width:1;"/><line style="stroke:#181818;stroke-width:1;" x1="220.5859" x2="589.5903" y1="181.1563" y2="181.1563"/><text fill="#000000" font-family="sans-serif" font-size="13" lengthAdjust="spacing" textLength="137.5791" x="227.5859" y="176.0903">Load node templates</text></g><g class="message" data-participant-1="Templates" data-participant-2="Sidebar"><polygon fill="#181818" points="231.5859,206.2891,221.5859,210.2891,231.5859,214.2891,227.5859,210.2891" style="stroke:#181818;stroke-width:1;"/><line style="stroke:#181818;stroke-width:1;stroke-dasharray:2.0,2.0;" x1="225.5859" x2="594.5903" y1="210.2891" y2="210.2891"/><text fill="#000000" font-family="sans-serif" font-size="13" lengthAdjust="spacing" textLength="133.6245" x="237.5859" y="205.2231">Template definitions</text></g><g class="message" data-participant-1="User" data-participant-2="Sidebar"><polygon fill="#181818" points="203.5859,235.4219,213.5859,239.4219,203.5859,243.4219,207.5859,239.4219" style="stroke:#181818;stroke-width:1;"/><line style="stroke:#181818;stroke-width:1;" x1="23.9551" x2="209.5859" y1="239.4219" y2="239.4219"/><text fill="#000000" font-family="sans-serif" font-size="13" lengthAdjust="spacing" textLength="68.1484" x="30.9551" y="234.356">Drag node</text></g><g class="message" data-participant-1="Sidebar" data-participant-2="Sidebar"><line style="stroke:#181818;stroke-width:1;" x1="225.5859" x2="267.5859" y1="283.6875" y2="283.6875"/><line style="stroke:#181818;stroke-width:1;" x1="267.5859" x2="267.5859" y1="283.6875" y2="296.6875"/><line style="stroke:#181818;stroke-width:1;" x1="226.5859" x2="267.5859" y1="296.6875" y2="296.6875"/><polygon fill="#181818" points="236.5859,292.6875,226.5859,296.6875,236.5859,300.6875,232.5859,296.6875" style="stroke:#181818;stroke-width:1;"/><text fill="#000000" font-family="sans-serif" font-size="13" lengthAdjust="spacing" textLength="109.5796" x="232.5859" y="263.4888">Attach metadata</text><text fill="#000000" font-family="sans-serif" font-size="13" lengthAdjust="spacing" textLength="167.7432" x="232.5859" y="278.6216">(template, params, ports)</text></g><g class="message" data-participant-1="Sidebar" data-participant-2="User"><polygon fill="#181818" points="34.9551,321.8203,24.9551,325.8203,34.9551,329.8203,30.9551,325.8203" style="stroke:#181818;stroke-width:1;"/><line style="stroke:#181818;stroke-width:1;stroke-dasharray:2.0,2.0;" x1="28.9551" x2="219.5859" y1="325.8203" y2="325.8203"/><text fill="#000000" font-family="sans-serif" font-size="13" lengthAdjust="spacing" textLength="87.2358" x="40.9551" y="320.7544">Drag preview</text></g><g class="message" data-participant-1="User" data-participant-2="Canvas"><polygon fill="#181818" points="405.3291,350.9531,415.3291,354.9531,405.3291,358.9531,409.3291,354.9531" style="stroke:#181818;stroke-width:1;"/><line style="stroke:#181818;stroke-width:1;" x1="23.9551" x2="411.3291" y1="354.9531" y2="354.9531"/><text fill="#000000" font-family="sans-serif" font-size="13" lengthAdjust="spacing" textLength="142.3081" x="30.9551" y="349.8872">Drop at position (x, y)</text></g><g class="message" data-participant-1="Canvas" data-participant-2="Canvas"><line style="stroke:#181818;stroke-width:1;" x1="427.3291" x2="469.3291" y1="399.2188" y2="399.2188"/><line style="stroke:#181818;stroke-width:1;" x1="469.3291" x2="469.3291" y1="399.2188" y2="412.2188"/><line style="stroke:#181818;stroke-width:1;" x1="428.3291" x2="469.3291" y1="412.2188" y2="412.2188"/><polygon fill="#181818" points="438.3291,408.2188,428.3291,412.2188,438.3291,416.2188,434.3291,412.2188" style="stroke:#181818;stroke-width:1;"/><text fill="#000000" font-family="sans-serif" font-size="13" lengthAdjust="spacing" textLength="116.3398" x="434.3291" y="379.02">Calculate position</text><text fill="#000000" font-family="sans-serif" font-size="13" lengthAdjust="spacing" textLength="123.2271" x="434.3291" y="394.1528">in flow coordinates</text></g><g class="message" data-participant-1="Canvas" data-participant-2="Canvas"><line style="stroke:#181818;stroke-width:1;" x1="427.3291" x2="469.3291" y1="441.3516" y2="441.3516"/><line style="stroke:#181818;stroke-width:1;" x1="469.3291" x2="469.3291" y1="441.3516" y2="454.3516"/><line style="stroke:#181818;stroke-width:1;" x1="428.3291" x2="469.3291" y1="454.3516" y2="454.3516"/><polygon fill="#181818" points="438.3291,450.3516,428.3291,454.3516,438.3291,458.3516,434.3291,454.3516" style="stroke:#181818;stroke-width:1;"/><text fill="#000000" font-family="sans-serif" font-size="13" lengthAdjust="spacing" textLength="139.2612" x="434.3291" y="436.2856">Create node instance</text></g><g class="message" data-participant-1="Canvas" data-participant-2="Canvas"><line style="stroke:#181818;stroke-width:1;" x1="427.3291" x2="469.3291" y1="498.6172" y2="498.6172"/><line style="stroke:#181818;stroke-width:1;" x1="469.3291" x2="469.3291" y1="498.6172" y2="511.6172"/><line style="stroke:#181818;stroke-width:1;" x1="428.3291" x2="469.3291" y1="511.6172" y2="511.6172"/><polygon fill="#181818" points="438.3291,507.6172,428.3291,511.6172,438.3291,515.6172,434.3291,511.6172" style="stroke:#181818;stroke-width:1;"/><text fill="#000000" font-family="sans-serif" font-size="13" lengthAdjust="spacing" textLength="131.0347" x="434.3291" y="478.4185">Assign artifact ports</text><text fill="#000000" font-family="sans-serif" font-size="13" lengthAdjust="spacing" textLength="93.355" x="434.3291" y="493.5513">from template</text></g><g class="message" data-participant-1="Canvas" data-participant-2="User"><polygon fill="#181818" points="34.9551,551.8828,24.9551,555.8828,34.9551,559.8828,30.9551,555.8828" style="stroke:#181818;stroke-width:1;"/><line style="stroke:#181818;stroke-width:1;stroke-dasharray:2.0,2.0;" x1="28.9551" x2="421.3291" y1="555.8828" y2="555.8828"/><text fill="#000000" font-family="sans-serif" font-size="13" lengthAdjust="spacing" textLength="97.4873" x="40.9551" y="535.6841">Node rendered</text><text fill="#000000" font-family="sans-serif" font-size="13" lengthAdjust="spacing" textLength="66.1108" x="40.9551" y="550.8169">on canvas</text></g><path d="M427,568.8828 L427,638.8828 L612,638.8828 L612,578.8828 L602,568.8828 L427,568.8828" fill="#FEFFDD" style="stroke:#181818;stroke-width:0.5;"/><path d="M602,568.8828 L602,578.8828 L612,578.8828 L602,568.8828" fill="#FEFFDD" style="stroke:#181818;stroke-width:0.5;"/><text fill="#000000" font-family="sans-serif" font-size="13" font-weight="bold" lengthAdjust="spacing" textLength="106.1582" x="433" y="585.9497">Node is ready:</text><text fill="#000000" font-family="sans-serif" font-size="13" lengthAdjust="spacing" textLength="164.8486" x="433" y="601.0825">&#8226; Connect to other nodes</text><text fill="#000000" font-family="sans-serif" font-size="13" lengthAdjust="spacing" textLength="154.6289" x="433" y="616.2153">&#8226; Configure parameters</text><text fill="#000000" font-family="sans-serif" font-size="13" lengthAdjust="spacing" textLength="125.6265" x="433" y="631.3481">&#8226; Upload input files</text><!--SRC=[RLFBRjj03BplLn3k9JPYe0-aXnmA92eA52XwQ9kRBhIMaXUHkS8kRSSe2lHR-cdzad9NBoUr3x95pWnVOt7I4dmCs02orH- -WpLyzPQW28JYF1iJ7nrt6707-XHNkGvPuAS1_TnZzTW4lsTR-DO7U4NlwhUrxNC-M0f3_CtD-vlgjVbb35QYWOT8mPphBRuxIniC9LyLADZwPha0Z324dsCBv0D6XNuZbODFhJ_sw3vXh2fiC18iVj2kQr6evCziwIc3nbWq9hK1wmzZ5RY5- -2FIcJTGOJD2Ie5DZwSp0XHz2IW-2yURKQ3JB9pVlrCUuo3fTgnI-kzs4C-ID9CotA7n1ZNSDR5ZByJmMeBEn9Ca-jUnbwk8LykwhSF4fSpNmLouQ5Q5-ZWw6Wi_LToQh1VRcQeJr1KC-OXuEhf6axBkTlX30FXd5fWM-tp3aPooOwXrWj2vTKnZlCABr6J8_lBWECeo1LTmjt5w1g6v9SwkIDFNd8T_6wwqSIRrv1T7qXT4iYMh5DLWvdevLo6lRu4rsm5V3r60LQhBEAYwg0ztQvM6lpx-myKdfcq5V7WPQlbihtcPEsQVQ3-LYGKnjH3roPxwVzlBr2xLZdQ8AJo_m00]--></g></svg>