<svg xmlns="http://www.w3.org/2000/svg" xmlns:xlink="http://www.w3.org/1999/xlink" contentStyleType="text/css" data-diagram-type="DESCRIPTION" height="588px" preserveAspectRatio="none" style="width:711px;height:588px;background:#FFFFFF;" version="1.1" viewBox="0 0 711 588" width="711px" zoomAndPan="magnify"><title>Backend API - Component Diagram (Prototype)</title><defs/><g><text fill="#000000" font-family="sans-serif" font-size="14" font-weight="bold" lengthAdjust="spacing" textLength="371.9912" x="162.5944" y="22.9951">Backend API - Component Diagram (Prototype)</text><!--cluster backend--><g class="cluster" data-entity="backend" data-source-line="17" data-uid="ent0002" id="cluster_backend"><rect fill="none" height="538" rx="2.5" ry="2.5" style="stroke:#181818;stroke-width:1;" width="521.99" x="7" y="44.2969"/><text fill="#000000" font-family="sans-serif" font-size="14" font-weight="bold" lengthAdjust="spacing" textLength="176.4014" x="179.7943" y="59.292">Backend API (FastAPI)</text></g><!--cluster API Layer--><g class="cluster" data-entity="API Layer" data-source-line="19" data-uid="ent0003" id="cluster_API Layer"><rect fill="none" height="129" rx="2.5" ry="2.5" style="stroke:#181818;stroke-width:1;" width="141.6" x="31" y="258.2969"/><text fill="#000000" font-family="sans-serif" font-size="14" font-weight="bold" lengthAdjust="spacing" textLength="75.0723" x="64.2639" y="273.292">API Layer</text></g><!--cluster Business Logic--><g class="cluster" data-entity="Business Logic" data-source-line="23" data-uid="ent0005" id="cluster_Business Logic"><rect fill="none" height="471" rx="2.5" ry="2.5" style="stroke:#181818;stroke-width:1;" width="141.18" x="200.6" y="87.2969"/><text fill="#000000" font-family="sans-serif" font-size="14" font-weight="bold" lengthAdjust="spacing" textLength="116.4297" x="212.9752" y="102.292">Business Logic</text></g><!--cluster Configuration--><g class="cluster" data-entity="Configuration" data-source-line="30" data-uid="ent0010" id="cluster_Configuration"><rect fill="none" height="243" rx="2.5" ry="2.5" style="stroke:#181818;stroke-width:1;" width="135.21" x="369.78" y="87.2969"/><text fill="#000000" font-family="sans-serif" font-size="14" font-weight="bold" lengthAdjust="spacing" textLength="108.165" x="383.3025" y="102.292">Configuration</text></g><!--cluster External Systems--><g class="cluster" data-entity="External Systems" data-source-line="36" data-uid="ent0013" id="cluster_External Systems"><rect fill="none" height="341" rx="2.5" ry="2.5" style="stroke:#181818;stroke-width:1;" width="152.19" x="552.99" y="202.2969"/><text fill="#000000" font-family="sans-serif" font-size="14" font-weight="bold" lengthAdjust="spacing" textLength="137.4229" x="560.3736" y="217.292">External Systems</text></g><!--entity api--><g class="entity" data-entity="api" data-source-line="20" data-uid="ent0004" id="entity_api"><rect fill="#2196F3" height="78.8906" rx="2.5" ry="2.5" style="stroke:#181818;stroke-width:0.5;" width="109.6035" x="47" y="292.8469"/><rect fill="#2196F3" height="10" style="stroke:#181818;stroke-width:0.5;" width="15" x="136.6035" y="297.8469"/><rect fill="#2196F3" height="2" style="stroke:#181818;stroke-width:0.5;" width="4" x="134.6035" y="299.8469"/><rect fill="#2196F3" height="2" style="stroke:#181818;stroke-width:0.5;" width="4" x="134.6035" y="303.8469"/><text fill="#FFFFFF" font-family="sans-serif" font-size="14" font-style="italic" lengthAdjust="spacing" textLength="38.4863" x="77.5586" y="325.842">&#171;api&#187;</text><text fill="#FFFFFF" font-family="sans-serif" font-size="14" lengthAdjust="spacing" textLength="36.0117" x="62" y="342.1389">REST</text><text fill="#FFFFFF" font-family="sans-serif" font-size="14" lengthAdjust="spacing" textLength="69.6035" x="62" y="358.4357">Endpoints</text></g><!--entity builder--><g class="entity" data-entity="builder" data-source-line="24" data-uid="ent0006" id="entity_builder"><rect fill="#4CAF50" height="78.8906" rx="2.5" ry="2.5" style="stroke:#181818;stroke-width:0.5;" width="105.1055" x="218.64" y="121.8469"/><rect fill="#4CAF50" height="10" style="stroke:#181818;stroke-width:0.5;" width="15" x="303.7455" y="126.8469"/><rect fill="#4CAF50" height="2" style="stroke:#181818;stroke-width:0.5;" width="4" x="301.7455" y="128.8469"/><rect fill="#4CAF50" height="2" style="stroke:#181818;stroke-width:0.5;" width="4" x="301.7455" y="132.8469"/><text fill="#FFFFFF" font-family="sans-serif" font-size="14" font-style="italic" lengthAdjust="spacing" textLength="50.0596" x="241.1629" y="154.842">&#171;logic&#187;</text><text fill="#FFFFFF" font-family="sans-serif" font-size="14" lengthAdjust="spacing" textLength="65.1055" x="233.64" y="171.1389">Workflow</text><text fill="#FFFFFF" font-family="sans-serif" font-size="14" lengthAdjust="spacing" textLength="49.5127" x="233.64" y="187.4357">Builder</text></g><!--entity execution--><g class="entity" data-entity="execution" data-source-line="25" data-uid="ent0007" id="entity_execution"><rect fill="#4CAF50" height="78.8906" rx="2.5" ry="2.5" style="stroke:#181818;stroke-width:0.5;" width="109.1729" x="216.6" y="235.8469"/><rect fill="#4CAF50" height="10" style="stroke:#181818;stroke-width:0.5;" width="15" x="305.7729" y="240.8469"/><rect fill="#4CAF50" height="2" style="stroke:#181818;stroke-width:0.5;" width="4" x="303.7729" y="242.8469"/><rect fill="#4CAF50" height="2" style="stroke:#181818;stroke-width:0.5;" width="4" x="303.7729" y="246.8469"/><text fill="#FFFFFF" font-family="sans-serif" font-size="14" font-style="italic" lengthAdjust="spacing" textLength="50.0596" x="241.1566" y="268.842">&#171;logic&#187;</text><text fill="#FFFFFF" font-family="sans-serif" font-size="14" lengthAdjust="spacing" textLength="69.1318" x="231.6" y="285.1389">Execution</text><text fill="#FFFFFF" font-family="sans-serif" font-size="14" lengthAdjust="spacing" textLength="69.1729" x="231.6" y="301.4357">Controller</text></g><!--entity store--><g class="entity" data-entity="store" data-source-line="26" data-uid="ent0008" id="entity_store"><rect fill="#4CAF50" height="78.8906" rx="2.5" ry="2.5" style="stroke:#181818;stroke-width:0.5;" width="105.1055" x="218.64" y="349.8469"/><rect fill="#4CAF50" height="10" style="stroke:#181818;stroke-width:0.5;" width="15" x="303.7455" y="354.8469"/><rect fill="#4CAF50" height="2" style="stroke:#181818;stroke-width:0.5;" width="4" x="301.7455" y="356.8469"/><rect fill="#4CAF50" height="2" style="stroke:#181818;stroke-width:0.5;" width="4" x="301.7455" y="360.8469"/><text fill="#FFFFFF" font-family="sans-serif" font-size="14" font-style="italic" lengthAdjust="spacing" textLength="50.0596" x="241.1629" y="382.842">&#171;logic&#187;</text><text fill="#FFFFFF" font-family="sans-serif" font-size="14" lengthAdjust="spacing" textLength="65.1055" x="233.64" y="399.1389">Workflow</text><text fill="#FFFFFF" font-family="sans-serif" font-size="14" lengthAdjust="spacing" textLength="37.3105" x="233.64" y="415.4357">Store</text></g><!--entity artifacts--><g class="entity" data-entity="artifacts" data-source-line="27" data-uid="ent0009" id="entity_artifacts"><rect fill="#4CAF50" height="78.8906" rx="2.5" ry="2.5" style="stroke:#181818;stroke-width:0.5;" width="101.3662" x="220.51" y="463.8469"/><rect fill="#4CAF50" height="10" style="stroke:#181818;stroke-width:0.5;" width="15" x="301.8762" y="468.8469"/><rect fill="#4CAF50" height="2" style="stroke:#181818;stroke-width:0.5;" width="4" x="299.8762" y="470.8469"/><rect fill="#4CAF50" height="2" style="stroke:#181818;stroke-width:0.5;" width="4" x="299.8762" y="474.8469"/><text fill="#FFFFFF" font-family="sans-serif" font-size="14" font-style="italic" lengthAdjust="spacing" textLength="50.0596" x="241.1633" y="496.842">&#171;logic&#187;</text><text fill="#FFFFFF" font-family="sans-serif" font-size="14" lengthAdjust="spacing" textLength="51.4063" x="235.51" y="513.1389">Artifact</text><text fill="#FFFFFF" font-family="sans-serif" font-size="14" lengthAdjust="spacing" textLength="61.3662" x="235.51" y="529.4357">Manager</text></g><!--entity catalog--><g class="entity" data-entity="catalog" data-source-line="31" data-uid="ent0011" id="entity_catalog"><rect fill="#FF9800" height="78.8906" rx="2.5" ry="2.5" style="stroke:#181818;stroke-width:0.5;" width="93.7646" x="390.5" y="121.8469"/><rect fill="#FF9800" height="10" style="stroke:#181818;stroke-width:0.5;" width="15" x="464.2646" y="126.8469"/><rect fill="#FF9800" height="2" style="stroke:#181818;stroke-width:0.5;" width="4" x="462.2646" y="128.8469"/><rect fill="#FF9800" height="2" style="stroke:#181818;stroke-width:0.5;" width="4" x="462.2646" y="132.8469"/><text fill="#FFFFFF" font-family="sans-serif" font-size="14" font-style="italic" lengthAdjust="spacing" textLength="48.665" x="408.0498" y="154.842">&#171;data&#187;</text><text fill="#FFFFFF" font-family="sans-serif" font-size="14" lengthAdjust="spacing" textLength="53.7646" x="405.5" y="171.1389">Catalog</text><text fill="#FFFFFF" font-family="sans-serif" font-size="14" lengthAdjust="spacing" textLength="48.2002" x="405.5" y="187.4357">Loader</text></g><!--entity validator--><g class="entity" data-entity="validator" data-source-line="32" data-uid="ent0012" id="entity_validator"><rect fill="#FF9800" height="78.8906" rx="2.5" ry="2.5" style="stroke:#181818;stroke-width:0.5;" width="103.2119" x="385.78" y="235.8469"/><rect fill="#FF9800" height="10" style="stroke:#181818;stroke-width:0.5;" width="15" x="468.9919" y="240.8469"/><rect fill="#FF9800" height="2" style="stroke:#181818;stroke-width:0.5;" width="4" x="466.9919" y="242.8469"/><rect fill="#FF9800" height="2" style="stroke:#181818;stroke-width:0.5;" width="4" x="466.9919" y="246.8469"/><text fill="#FFFFFF" font-family="sans-serif" font-size="14" font-style="italic" lengthAdjust="spacing" textLength="48.665" x="408.0534" y="268.842">&#171;data&#187;</text><text fill="#FFFFFF" font-family="sans-serif" font-size="14" lengthAdjust="spacing" textLength="43.8457" x="400.78" y="285.1389">Image</text><text fill="#FFFFFF" font-family="sans-serif" font-size="14" lengthAdjust="spacing" textLength="63.2119" x="400.78" y="301.4357">Validator</text></g><!--entity minio--><g class="entity" data-entity="minio" data-source-line="37" data-uid="ent0014" id="entity_minio"><rect fill="#607D8B" height="78.8906" rx="2.5" ry="2.5" style="stroke:#181818;stroke-width:0.5;" width="117.2295" x="570.47" y="448.8469"/><rect fill="#607D8B" height="10" style="stroke:#181818;stroke-width:0.5;" width="15" x="667.6995" y="453.8469"/><rect fill="#607D8B" height="2" style="stroke:#181818;stroke-width:0.5;" width="4" x="665.6995" y="455.8469"/><rect fill="#607D8B" height="2" style="stroke:#181818;stroke-width:0.5;" width="4" x="665.6995" y="459.8469"/><text fill="#FFFFFF" font-family="sans-serif" font-size="14" font-style="italic" lengthAdjust="spacing" textLength="75.2295" x="586.47" y="481.842">&#171;external&#187;</text><text fill="#FFFFFF" font-family="sans-serif" font-size="14" lengthAdjust="spacing" textLength="39.9902" x="604.0896" y="498.1389">MinIO</text><text fill="#FFFFFF" font-family="sans-serif" font-size="14" lengthAdjust="spacing" textLength="28.7178" x="604.0896" y="514.4357">(S3)</text></g><!--entity argo--><g class="entity" data-entity="argo" data-source-line="38" data-uid="ent0015" id="entity_argo"><rect fill="#607D8B" height="78.8906" rx="2.5" ry="2.5" style="stroke:#181818;stroke-width:0.5;" width="117.2295" x="570.47" y="334.8469"/><rect fill="#607D8B" height="10" style="stroke:#181818;stroke-width:0.5;" width="15" x="667.6995" y="339.8469"/><rect fill="#607D8B" height="2" style="stroke:#181818;stroke-width:0.5;" width="4" x="665.6995" y="341.8469"/><rect fill="#607D8B" height="2" style="stroke:#181818;stroke-width:0.5;" width="4" x="665.6995" y="345.8469"/><text fill="#FFFFFF" font-family="sans-serif" font-size="14" font-style="italic" lengthAdjust="spacing" textLength="75.2295" x="586.47" y="367.842">&#171;external&#187;</text><text fill="#FFFFFF" font-family="sans-serif" font-size="14" lengthAdjust="spacing" textLength="32.7852" x="587.885" y="384.1389">Argo</text><text fill="#FFFFFF" font-family="sans-serif" font-size="14" lengthAdjust="spacing" textLength="72.3994" x="587.885" y="400.4357">Workflows</text></g><!--entity k8s--><g class="entity" data-entity="k8s" data-source-line="39" data-uid="ent0016" id="entity_k8s"><rect fill="#607D8B" height="62.5938" rx="2.5" ry="2.5" style="stroke:#181818;stroke-width:0.5;" width="120.1924" x="568.99" y="236.9969"/><rect fill="#607D8B" height="10" style="stroke:#181818;stroke-width:0.5;" width="15" x="669.1824" y="241.9969"/><rect fill="#607D8B" height="2" style="stroke:#181818;stroke-width:0.5;" width="4" x="667.1824" y="243.9969"/><rect fill="#607D8B" height="2" style="stroke:#181818;stroke-width:0.5;" width="4" x="667.1824" y="247.9969"/><text fill="#FFFFFF" font-family="sans-serif" font-size="14" font-style="italic" lengthAdjust="spacing" textLength="75.2295" x="586.4714" y="269.992">&#171;external&#187;</text><text fill="#FFFFFF" font-family="sans-serif" font-size="14" lengthAdjust="spacing" textLength="80.1924" x="583.99" y="286.2889">Kubernetes</text></g><!--link api to builder--><g class="link" data-entity-1="api" data-entity-2="builder" data-source-line="43" data-uid="lnk17" id="link_api_builder"><path d="M102.18,292.6369 C102.18,242.1169 102.18,161.2969 102.18,161.2969 C102.18,161.2969 162.61,161.2969 212.18,161.2969" fill="none" id="api-to-builder" style="stroke:#181818;stroke-width:1;"/><polygon fill="#181818" points="218.18,161.2969,209.18,157.2969,213.18,161.2969,209.18,165.2969,218.18,161.2969" style="stroke:#181818;stroke-width:1;"/></g><!--link api to execution--><g class="link" data-entity-1="api" data-entity-2="execution" data-source-line="44" data-uid="lnk18" id="link_api_execution"><path d="M156.8,303.7969 C175.83,303.7969 191.15,303.7969 210.18,303.7969" fill="none" id="api-to-execution" style="stroke:#181818;stroke-width:1;"/><polygon fill="#181818" points="216.18,303.7969,207.18,299.7969,211.18,303.7969,207.18,307.7969,216.18,303.7969" style="stroke:#181818;stroke-width:1;"/></g><!--link api to store--><g class="link" data-entity-1="api" data-entity-2="store" data-source-line="45" data-uid="lnk19" id="link_api_store"><path d="M156.8,360.7969 C176.5,360.7969 192.67,360.7969 212.2,360.7969" fill="none" id="api-to-store" style="stroke:#181818;stroke-width:1;"/><polygon fill="#181818" points="218.2,360.7969,209.2,356.7969,213.2,360.7969,209.2,364.7969,218.2,360.7969" style="stroke:#181818;stroke-width:1;"/></g><!--link api to artifacts--><g class="link" data-entity-1="api" data-entity-2="artifacts" data-source-line="46" data-uid="lnk20" id="link_api_artifacts"><path d="M102.18,371.9569 C102.18,422.4769 102.18,503.2969 102.18,503.2969 C102.18,503.2969 164.28,503.2969 214.02,503.2969" fill="none" id="api-to-artifacts" style="stroke:#181818;stroke-width:1;"/><polygon fill="#181818" points="220.02,503.2969,211.02,499.2969,215.02,503.2969,211.02,507.2969,220.02,503.2969" style="stroke:#181818;stroke-width:1;"/></g><!--link builder to catalog--><g class="link" data-entity-1="builder" data-entity-2="catalog" data-source-line="49" data-uid="lnk21" id="link_builder_catalog"><path d="M324.23,161.2969 C345.42,161.2969 363.61,161.2969 384.18,161.2969" fill="none" id="builder-to-catalog" style="stroke:#181818;stroke-width:1;"/><polygon fill="#181818" points="390.18,161.2969,381.18,157.2969,385.18,161.2969,381.18,165.2969,390.18,161.2969" style="stroke:#181818;stroke-width:1;"/></g><!--link store to minio--><g class="link" data-entity-1="store" data-entity-2="minio" data-source-line="52" data-uid="lnk22" id="link_store_minio"><path d="M272.18,429.0769 C272.18,443.5169 272.18,456.3469 272.18,456.3469 C272.18,456.3469 462.78,456.3469 564.15,456.3469" fill="none" id="store-to-minio" style="stroke:#181818;stroke-width:1;"/><polygon fill="#181818" points="570.15,456.3469,561.15,452.3469,565.15,456.3469,561.15,460.3469,570.15,456.3469" style="stroke:#181818;stroke-width:1;"/></g><!--link artifacts to minio--><g class="link" data-entity-1="artifacts" data-entity-2="minio" data-source-line="53" data-uid="lnk23" id="link_artifacts_minio"><path d="M322.09,495.7969 C387.51,495.7969 494.88,495.7969 564.03,495.7969" fill="none" id="artifacts-to-minio" style="stroke:#181818;stroke-width:1;"/><polygon fill="#181818" points="570.03,495.7969,561.03,491.7969,565.03,495.7969,561.03,499.7969,570.03,495.7969" style="stroke:#181818;stroke-width:1;"/></g><!--link execution to argo--><g class="link" data-entity-1="execution" data-entity-2="argo" data-source-line="54" data-uid="lnk24" id="link_execution_argo"><path d="M272.18,315.0769 C272.18,329.5169 272.18,342.3469 272.18,342.3469 C272.18,342.3469 462.78,342.3469 564.15,342.3469" fill="none" id="execution-to-argo" style="stroke:#181818;stroke-width:1;"/><polygon fill="#181818" points="570.15,342.3469,561.15,338.3469,565.15,342.3469,561.15,346.3469,570.15,342.3469" style="stroke:#181818;stroke-width:1;"/></g><!--link validator to k8s--><g class="link" data-entity-1="validator" data-entity-2="k8s" data-source-line="55" data-uid="lnk25" id="link_validator_k8s"><path d="M489.26,268.2969 C513.77,268.2969 537.17,268.2969 562.67,268.2969" fill="none" id="validator-to-k8s" style="stroke:#181818;stroke-width:1;"/><polygon fill="#181818" points="568.67,268.2969,559.67,264.2969,563.67,268.2969,559.67,272.2969,568.67,268.2969" style="stroke:#181818;stroke-width:1;"/></g><!--SRC=[VLHHRzem47xthpZHXz479BPk7PKg9A14GgDQDQRs9IycCS72t27RsOec_lli94u21V8GsNVtVNVvxbEij4h0c2SRWIcCNcRGWmbjTuG2BJn9dcc-XUwB9ajslnEtZ2cnic09jCpM5bAfHM8b8JCRYJlkovL4uOk1j5qJQsMIcleV0_Vunfcc7DC9ATAFZtmdXqEu-VBvuJwwAqeYGdkKV5jBAywZ5MKoyVYlar7qhN-A3-ah32ctt1D4qSEW_u6Wobx1YtShD7BbEUxxtvy6urEELaN9Ss3CIyWnSvlej5VHZRYnxd3R0MvWMMLAvOfN2-VhvtmlTASgy4yZT-VNTF4xnYccEv9eJS7ez8HArG9oECiypetRfp4mz_9Te7yZlLaf-XlZE9SgzMFuaSiprDAVWqxVHP9x1yKuSJ9fKgg2Yv2vJj3qNbZIee0QVxeE6sahLponCJvpv5dLarTHSm8-huqRU2MpN7C_vGLf9iuqZYd6EV4WJ5B685Zg76wsTKF5-CgLT4LK0l-4sp7qSEAYQMKoMEoD5LiJHclHFqkS_OonkxWhxRMLA0dQ_cGV1Cieng1sPI4NkmhwaIzTHbXHrcy6vhZSpVsfC7igbCYug_F_bcNmNB42vetQwms3d-fxRP0wKkozljNBz4t6HvoG6zSgQU-F1RjwQBMXIy3m1M1AWLbfE8yiX6IDZvfOu-Tok8nOiqyVSkhy1m00]--></g></svg>