<svg xmlns="http://www.w3.org/2000/svg" xmlns:xlink="http://www.w3.org/1999/xlink" contentStyleType="text/css" data-diagram-type="ACTIVITY" height="1407px" preserveAspectRatio="none" style="width:487px;height:1407px;background:#FFFFFF;" version="1.1" viewBox="0 0 487 1407" width="487px" zoomAndPan="magnify"><title>Workflow Compilation Pipeline</title><defs/><g><g class="title" data-source-line="1"><text fill="#000000" font-family="sans-serif" font-size="14" font-weight="bold" lengthAdjust="spacing" textLength="242.7236" x="120.814" y="32.9951">Workflow Compilation Pipeline</text></g><ellipse cx="251.1553" cy="57.2969" fill="#222222" rx="10" ry="10" style="stroke:#222222;stroke-width:1;"/><rect fill="#E3F2FD" height="47.9375" rx="12.5" ry="12.5" style="stroke:#1565C0;stroke-width:0.5;" width="157.9941" x="172.1582" y="87.2969"/><text fill="#000000" font-family="sans-serif" font-size="12" lengthAdjust="spacing" textLength="137.9941" x="182.1582" y="108.4355">Receive graph payload</text><text fill="#000000" font-family="sans-serif" font-size="12" lengthAdjust="spacing" textLength="99.498" x="182.1582" y="122.4043">(nodes + edges)</text><rect fill="none" height="336.7695" style="stroke:#000000;stroke-width:1.5;" width="465.3516" x="11" y="145.2344"/><path d="M155.5449,145.2344 L155.5449,154.5313 L145.5449,164.5313 L11,164.5313" fill="none" style="stroke:#000000;stroke-width:1.5;"/><text fill="#000000" font-family="sans-serif" font-size="14" lengthAdjust="spacing" textLength="134.5449" x="14" y="159.2295">Phase 1: Validation</text><rect fill="#E3F2FD" height="33.9688" rx="12.5" ry="12.5" style="stroke:#1565C0;stroke-width:0.5;" width="185.2285" x="158.541" y="181.5313"/><text fill="#000000" font-family="sans-serif" font-size="12" lengthAdjust="spacing" textLength="165.2285" x="168.541" y="202.6699">Parse with Pydantic models</text><polygon fill="#E3F2FD" points="165.0325,235.5,337.2781,235.5,349.2781,247.5,337.2781,259.5,165.0325,259.5,153.0325,247.5,165.0325,235.5" style="stroke:#1565C0;stroke-width:0.5;"/><text fill="#000000" font-family="sans-serif" font-size="11" lengthAdjust="spacing" textLength="172.2456" x="165.0325" y="251.3081">All nodes have templateName?</text><text fill="#000000" font-family="sans-serif" font-size="11" lengthAdjust="spacing" textLength="19.0083" x="134.0242" y="244.9058">yes</text><text fill="#000000" font-family="sans-serif" font-size="11" lengthAdjust="spacing" textLength="13.7017" x="349.2781" y="244.9058">no</text><rect fill="#E3F2FD" height="33.9688" rx="12.5" ry="12.5" style="stroke:#1565C0;stroke-width:0.5;" width="225.6348" x="23" y="269.5"/><text fill="#000000" font-family="sans-serif" font-size="12" lengthAdjust="spacing" textLength="205.6348" x="33" y="290.6387">Load catalog and verify templates</text><rect fill="#FFCDD2" height="33.9688" rx="12.5" ry="12.5" style="stroke:#1565C0;stroke-width:0.5;" width="176.0527" x="47.791" y="371.8711"/><text fill="#000000" font-family="sans-serif" font-size="12" lengthAdjust="spacing" textLength="156.0527" x="57.791" y="393.0098">Error: Template not found</text><ellipse cx="135.8174" cy="436.8398" fill="none" rx="11" ry="11" style="stroke:#222222;stroke-width:1;"/><ellipse cx="135.8174" cy="436.8398" fill="#222222" rx="6" ry="6" style="stroke:#222222;stroke-width:1;"/><polygon fill="#E3F2FD" points="81.7009,323.4688,189.9338,323.4688,201.9338,335.4688,189.9338,347.4688,81.7009,347.4688,69.7009,335.4688,81.7009,323.4688" style="stroke:#1565C0;stroke-width:0.5;"/><text fill="#000000" font-family="sans-serif" font-size="11" lengthAdjust="spacing" textLength="13.7017" x="139.8174" y="357.6792">no</text><text fill="#000000" font-family="sans-serif" font-size="11" lengthAdjust="spacing" textLength="108.2329" x="81.7009" y="339.2769">All templates exist?</text><text fill="#000000" font-family="sans-serif" font-size="11" lengthAdjust="spacing" textLength="19.0083" x="201.9338" y="332.8745">yes</text><rect fill="#FFCDD2" height="33.9688" rx="12.5" ry="12.5" style="stroke:#1565C0;stroke-width:0.5;" width="195.7168" x="268.6348" y="269.5"/><text fill="#000000" font-family="sans-serif" font-size="12" lengthAdjust="spacing" textLength="175.7168" x="278.6348" y="290.6387">Error: Missing templateName</text><ellipse cx="366.4932" cy="334.4688" fill="none" rx="11" ry="11" style="stroke:#222222;stroke-width:1;"/><ellipse cx="366.4932" cy="334.4688" fill="#222222" rx="6" ry="6" style="stroke:#222222;stroke-width:1;"/><rect fill="none" height="298.1406" style="stroke:#000000;stroke-width:1.5;" width="202.5156" x="149.8975" y="492.8057"/><path d="M341.8838,492.8057 L341.8838,502.1025 L331.8838,512.1025 L149.8975,512.1025" fill="none" style="stroke:#000000;stroke-width:1.5;"/><text fill="#000000" font-family="sans-serif" font-size="14" lengthAdjust="spacing" textLength="181.9863" x="152.8975" y="506.8008">Phase 2: Build Node Plans</text><rect fill="#E3F2FD" height="33.9688" rx="12.5" ry="12.5" style="stroke:#1565C0;stroke-width:0.5;" width="109.7363" x="196.2871" y="529.1025"/><text fill="#000000" font-family="sans-serif" font-size="12" lengthAdjust="spacing" textLength="89.7363" x="206.2871" y="550.2412">For each node:</text><rect fill="#E3F2FD" height="33.9688" rx="12.5" ry="12.5" style="stroke:#1565C0;stroke-width:0.5;" width="160.5254" x="170.8926" y="583.0713"/><text fill="#000000" font-family="sans-serif" font-size="12" lengthAdjust="spacing" textLength="140.5254" x="180.8926" y="604.21">&#8226; Generate unique slug</text><rect fill="#E3F2FD" height="33.9688" rx="12.5" ry="12.5" style="stroke:#1565C0;stroke-width:0.5;" width="141.7578" x="180.2764" y="637.04"/><text fill="#000000" font-family="sans-serif" font-size="12" lengthAdjust="spacing" textLength="121.7578" x="190.2764" y="658.1787">&#8226; Build output paths</text><rect fill="#E3F2FD" height="33.9688" rx="12.5" ry="12.5" style="stroke:#1565C0;stroke-width:0.5;" width="182.5156" x="159.8975" y="691.0088"/><text fill="#000000" font-family="sans-serif" font-size="12" lengthAdjust="spacing" textLength="162.5156" x="169.8975" y="712.1475">&#8226; Merge config parameters</text><rect fill="#E3F2FD" height="33.9688" rx="12.5" ry="12.5" style="stroke:#1565C0;stroke-width:0.5;" width="148.4023" x="176.9541" y="744.9775"/><text fill="#000000" font-family="sans-serif" font-size="12" lengthAdjust="spacing" textLength="128.4023" x="186.9541" y="766.1162">&#8226; Upload config to S3</text><rect fill="none" height="190.2031" style="stroke:#000000;stroke-width:1.5;" width="259.3281" x="121.4912" y="800.9463"/><path d="M354.8896,800.9463 L354.8896,810.2432 L344.8896,820.2432 L121.4912,820.2432" fill="none" style="stroke:#000000;stroke-width:1.5;"/><text fill="#000000" font-family="sans-serif" font-size="14" lengthAdjust="spacing" textLength="223.3984" x="124.4912" y="814.9414">Phase 3: Resolve Dependencies</text><rect fill="#E3F2FD" height="33.9688" rx="12.5" ry="12.5" style="stroke:#1565C0;stroke-width:0.5;" width="109.7891" x="196.2607" y="837.2432"/><text fill="#000000" font-family="sans-serif" font-size="12" lengthAdjust="spacing" textLength="89.7891" x="206.2607" y="858.3818">For each edge:</text><rect fill="#E3F2FD" height="33.9688" rx="12.5" ry="12.5" style="stroke:#1565C0;stroke-width:0.5;" width="239.3281" x="131.4912" y="891.2119"/><text fill="#000000" font-family="sans-serif" font-size="12" lengthAdjust="spacing" textLength="219.3281" x="141.4912" y="912.3506">&#8226; Register target depends on source</text><rect fill="#E3F2FD" height="33.9688" rx="12.5" ry="12.5" style="stroke:#1565C0;stroke-width:0.5;" width="169.3262" x="166.4922" y="945.1807"/><text fill="#000000" font-family="sans-serif" font-size="12" lengthAdjust="spacing" textLength="149.3262" x="176.4922" y="966.3193">&#8226; Match artifact bindings</text><rect fill="none" height="244.1719" style="stroke:#000000;stroke-width:1.5;" width="213.9082" x="144.2012" y="1001.9512"/><path d="M348.1094,1001.9512 L348.1094,1011.248 L338.1094,1021.248 L144.2012,1021.248" fill="none" style="stroke:#000000;stroke-width:1.5;"/><text fill="#000000" font-family="sans-serif" font-size="14" lengthAdjust="spacing" textLength="193.9082" x="147.2012" y="1015.9463">Phase 4: Generate Manifest</text><rect fill="#E3F2FD" height="33.9688" rx="12.5" ry="12.5" style="stroke:#1565C0;stroke-width:0.5;" width="122.4746" x="189.918" y="1038.248"/><text fill="#000000" font-family="sans-serif" font-size="12" lengthAdjust="spacing" textLength="102.4746" x="199.918" y="1059.3867">Build Argo YAML:</text><rect fill="#E3F2FD" height="33.9688" rx="12.5" ry="12.5" style="stroke:#1565C0;stroke-width:0.5;" width="148.6719" x="176.8193" y="1092.2168"/><text fill="#000000" font-family="sans-serif" font-size="12" lengthAdjust="spacing" textLength="128.6719" x="186.8193" y="1113.3555">&#8226; Workflow metadata</text><rect fill="#E3F2FD" height="33.9688" rx="12.5" ry="12.5" style="stroke:#1565C0;stroke-width:0.5;" width="177.2715" x="162.5195" y="1146.1855"/><text fill="#000000" font-family="sans-serif" font-size="12" lengthAdjust="spacing" textLength="157.2715" x="172.5195" y="1167.3242">&#8226; Global input parameters</text><rect fill="#E3F2FD" height="33.9688" rx="12.5" ry="12.5" style="stroke:#1565C0;stroke-width:0.5;" width="181.3145" x="160.498" y="1200.1543"/><text fill="#000000" font-family="sans-serif" font-size="12" lengthAdjust="spacing" textLength="161.3145" x="170.498" y="1221.293">&#8226; DAG with tasks and deps</text><rect fill="#E3F2FD" height="33.9688" rx="12.5" ry="12.5" style="stroke:#1565C0;stroke-width:0.5;" width="159.7695" x="171.2705" y="1266.123"/><text fill="#000000" font-family="sans-serif" font-size="12" lengthAdjust="spacing" textLength="139.7695" x="181.2705" y="1287.2617">Save manifest to MinIO</text><rect fill="#E3F2FD" height="33.9688" rx="12.5" ry="12.5" style="stroke:#1565C0;stroke-width:0.5;" width="169.6895" x="166.3105" y="1320.0918"/><text fill="#000000" font-family="sans-serif" font-size="12" lengthAdjust="spacing" textLength="149.6895" x="176.3105" y="1341.2305">Return result to frontend</text><ellipse cx="251.1553" cy="1385.0605" fill="none" rx="11" ry="11" style="stroke:#222222;stroke-width:1;"/><ellipse cx="251.1553" cy="1385.0605" fill="#222222" rx="6" ry="6" style="stroke:#222222;stroke-width:1;"/><line style="stroke:#181818;stroke-width:1;" x1="251.1553" x2="251.1553" y1="67.2969" y2="87.2969"/><polygon fill="#181818" points="247.1553,77.2969,251.1553,87.2969,255.1553,77.2969,251.1553,81.2969" style="stroke:#181818;stroke-width:1;"/><line style="stroke:#181818;stroke-width:1;" x1="135.8174" x2="135.8174" y1="405.8398" y2="425.8398"/><polygon fill="#181818" points="131.8174,415.8398,135.8174,425.8398,139.8174,415.8398,135.8174,419.8398" style="stroke:#181818;stroke-width:1;"/><line style="stroke:#181818;stroke-width:1;" x1="135.8174" x2="135.8174" y1="347.4688" y2="371.8711"/><polygon fill="#181818" points="131.8174,361.8711,135.8174,371.8711,139.8174,361.8711,135.8174,365.8711" style="stroke:#181818;stroke-width:1;"/><line style="stroke:#181818;stroke-width:1;" x1="201.9338" x2="251.1553" y1="335.4688" y2="335.4688"/><polygon fill="#181818" points="247.1553,438.0039,251.1553,448.0039,255.1553,438.0039,251.1553,442.0039" style="stroke:#181818;stroke-width:1;"/><line style="stroke:#181818;stroke-width:1;" x1="251.1553" x2="251.1553" y1="335.4688" y2="529.1025"/><polygon fill="#181818" points="247.1553,519.1025,251.1553,529.1025,255.1553,519.1025,251.1553,523.1025" style="stroke:#181818;stroke-width:1;"/><line style="stroke:#181818;stroke-width:1;" x1="135.8174" x2="135.8174" y1="303.4688" y2="323.4688"/><polygon fill="#181818" points="131.8174,313.4688,135.8174,323.4688,139.8174,313.4688,135.8174,317.4688" style="stroke:#181818;stroke-width:1;"/><line style="stroke:#181818;stroke-width:1;" x1="366.4932" x2="366.4932" y1="303.4688" y2="323.4688"/><polygon fill="#181818" points="362.4932,313.4688,366.4932,323.4688,370.4932,313.4688,366.4932,317.4688" style="stroke:#181818;stroke-width:1;"/><line style="stroke:#181818;stroke-width:1;" x1="153.0325" x2="135.8174" y1="247.5" y2="247.5"/><line style="stroke:#181818;stroke-width:1;" x1="135.8174" x2="135.8174" y1="247.5" y2="269.5"/><polygon fill="#181818" points="131.8174,259.5,135.8174,269.5,139.8174,259.5,135.8174,263.5" style="stroke:#181818;stroke-width:1;"/><line style="stroke:#181818;stroke-width:1;" x1="349.2781" x2="366.4932" y1="247.5" y2="247.5"/><line style="stroke:#181818;stroke-width:1;" x1="366.4932" x2="366.4932" y1="247.5" y2="269.5"/><polygon fill="#181818" points="362.4932,259.5,366.4932,269.5,370.4932,259.5,366.4932,263.5" style="stroke:#181818;stroke-width:1;"/><line style="stroke:#181818;stroke-width:1;" x1="251.1553" x2="251.1553" y1="215.5" y2="235.5"/><polygon fill="#181818" points="247.1553,225.5,251.1553,235.5,255.1553,225.5,251.1553,229.5" style="stroke:#181818;stroke-width:1;"/><line style="stroke:#181818;stroke-width:1;" x1="251.1553" x2="251.1553" y1="135.2344" y2="181.5313"/><polygon fill="#181818" points="247.1553,171.5313,251.1553,181.5313,255.1553,171.5313,251.1553,175.5313" style="stroke:#181818;stroke-width:1;"/><line style="stroke:#181818;stroke-width:1;" x1="251.1553" x2="251.1553" y1="563.0713" y2="583.0713"/><polygon fill="#181818" points="247.1553,573.0713,251.1553,583.0713,255.1553,573.0713,251.1553,577.0713" style="stroke:#181818;stroke-width:1;"/><line style="stroke:#181818;stroke-width:1;" x1="251.1553" x2="251.1553" y1="617.04" y2="637.04"/><polygon fill="#181818" points="247.1553,627.04,251.1553,637.04,255.1553,627.04,251.1553,631.04" style="stroke:#181818;stroke-width:1;"/><line style="stroke:#181818;stroke-width:1;" x1="251.1553" x2="251.1553" y1="671.0088" y2="691.0088"/><polygon fill="#181818" points="247.1553,681.0088,251.1553,691.0088,255.1553,681.0088,251.1553,685.0088" style="stroke:#181818;stroke-width:1;"/><line style="stroke:#181818;stroke-width:1;" x1="251.1553" x2="251.1553" y1="724.9775" y2="744.9775"/><polygon fill="#181818" points="247.1553,734.9775,251.1553,744.9775,255.1553,734.9775,251.1553,738.9775" style="stroke:#181818;stroke-width:1;"/><line style="stroke:#181818;stroke-width:1;" x1="251.1553" x2="251.1553" y1="871.2119" y2="891.2119"/><polygon fill="#181818" points="247.1553,881.2119,251.1553,891.2119,255.1553,881.2119,251.1553,885.2119" style="stroke:#181818;stroke-width:1;"/><line style="stroke:#181818;stroke-width:1;" x1="251.1553" x2="251.1553" y1="925.1807" y2="945.1807"/><polygon fill="#181818" points="247.1553,935.1807,251.1553,945.1807,255.1553,935.1807,251.1553,939.1807" style="stroke:#181818;stroke-width:1;"/><line style="stroke:#181818;stroke-width:1;" x1="251.1553" x2="251.1553" y1="778.9463" y2="837.2432"/><polygon fill="#181818" points="247.1553,827.2432,251.1553,837.2432,255.1553,827.2432,251.1553,831.2432" style="stroke:#181818;stroke-width:1;"/><line style="stroke:#181818;stroke-width:1;" x1="251.1553" x2="251.1553" y1="1072.2168" y2="1092.2168"/><polygon fill="#181818" points="247.1553,1082.2168,251.1553,1092.2168,255.1553,1082.2168,251.1553,1086.2168" style="stroke:#181818;stroke-width:1;"/><line style="stroke:#181818;stroke-width:1;" x1="251.1553" x2="251.1553" y1="1126.1855" y2="1146.1855"/><polygon fill="#181818" points="247.1553,1136.1855,251.1553,1146.1855,255.1553,1136.1855,251.1553,1140.1855" style="stroke:#181818;stroke-width:1;"/><line style="stroke:#181818;stroke-width:1;" x1="251.1553" x2="251.1553" y1="1180.1543" y2="1200.1543"/><polygon fill="#181818" points="247.1553,1190.1543,251.1553,1200.1543,255.1553,1190.1543,251.1553,1194.1543" style="stroke:#181818;stroke-width:1;"/><line style="stroke:#181818;stroke-width:1;" x1="251.1553" x2="251.1553" y1="979.1494" y2="1038.248"/><polygon fill="#181818" points="247.1553,1028.248,251.1553,1038.248,255.1553,1028.248,251.1553,1032.248" style="stroke:#181818;stroke-width:1;"/><line style="stroke:#181818;stroke-width:1;" x1="251.1553" x2="251.1553" y1="1234.123" y2="1266.123"/><polygon fill="#181818" points="247.1553,1256.123,251.1553,1266.123,255.1553,1256.123,251.1553,1260.123" style="stroke:#181818;stroke-width:1;"/><line style="stroke:#181818;stroke-width:1;" x1="251.1553" x2="251.1553" y1="1300.0918" y2="1320.0918"/><polygon fill="#181818" points="247.1553,1310.0918,251.1553,1320.0918,255.1553,1310.0918,251.1553,1314.0918" style="stroke:#181818;stroke-width:1;"/><line style="stroke:#181818;stroke-width:1;" x1="251.1553" x2="251.1553" y1="1354.0605" y2="1374.0605"/><polygon fill="#181818" points="247.1553,1364.0605,251.1553,1374.0605,255.1553,1364.0605,251.1553,1368.0605" style="stroke:#181818;stroke-width:1;"/><!--SRC=[RPFFRjim3CRlVWgYlQJOPKtM7Pp3a2PBCQ3fWdP_C60NrgPj8hBaINIwO2YmPzcZxKb6su7Z3jPHb7xy-94K5aFmrVbTPjmJB5rPiK5XPs7B5Hcs54LXnxP2ZoLW8hndES2l2FHSOxBBlQjjkdJ6UJYdMJRDqYxcV4h-U7zvzVOgUHqzAqlGInJ5zvGGxmboZrK15HwCm_IxdLYNKe1NG6bEuM8UHPfOk1LqjYqm45p6y0KDfwtAiwEIU8jUOqyi1MmFALhX14fbcJ1l7t06auKnqF4BrDH2PQMrqXsMzEu2f20BauDcRJ-qr5iL1GaA6fS3sXJsv3axz5-Fy662FWJqauECWrKMWTPwkcdE-NgzNAscyNlldO_Xqv6acWMonkNvY-T1N7KYsfIpQ9pz7tV38R3DNzH_8lVKZlWyqe5f3DSrcnJkr4pO6hIXxyDQsqsO5AtHSOUD__x-0pTaoJVLr9P_r0J1rFaWt05TBLKjEWvIX45mGpudI9pDE8Ts4ad83rzyhapRgkw9E7YOpKUrpsAuf-2Czdz5bTP8Dc4QqTyCu53_FUNQJlAW0voJGDh-3g3eu6gVq50lYXAQr9bk33ooMcdpCAxeJNpoPeEMCmhIo-biMVZSmRV5vdOeg5zQDGDr6t1ejd6FQ43NjdLpnB3LugRR5i6m2-riQqMTnFYXMO_ogALnSyFsmyTvixLIUmkUGctQGEQT5MecCse6vny0]--></g></svg>