<svg xmlns="http://www.w3.org/2000/svg" xmlns:xlink="http://www.w3.org/1999/xlink" contentStyleType="text/css" data-diagram-type="SEQUENCE" height="1012px" preserveAspectRatio="none" style="width:704px;height:1012px;background:#FFFFFF;" version="1.1" viewBox="0 0 704 1012" width="704px" zoomAndPan="magnify"><title>Artifact Passing Pattern - Data Flow Between Steps</title><defs/><g><text fill="#000000" font-family="sans-serif" font-size="14" font-weight="bold" lengthAdjust="spacing" textLength="407.8047" x="144.1462" y="27.9951">Artifact Passing Pattern - Data Flow Between Steps</text><g><title>Step 1:</title><rect fill="#FFFFFF" height="58.2656" style="stroke:#181818;stroke-width:1;" width="10" x="447.4141" y="296.5547"/></g><g><title>Step 2:</title><rect fill="#FFFFFF" height="58.2656" style="stroke:#181818;stroke-width:1;" width="10" x="549.3472" y="456.2188"/></g><g><title>Step 3:</title><rect fill="#FFFFFF" height="58.2656" style="stroke:#181818;stroke-width:1;" width="10" x="641.0469" y="615.8828"/></g><g><title>User</title><rect fill="#000000" fill-opacity="0.00000" height="797.4531" width="8" x="19.9551" y="120.8906"/><line style="stroke:#181818;stroke-width:0.5;stroke-dasharray:5.0,5.0;" x1="23" x2="23" y1="120.8906" y2="918.3438"/></g><g><title>Argo</title><rect fill="#000000" fill-opacity="0.00000" height="797.4531" width="8" x="177.5161" y="120.8906"/><line style="stroke:#181818;stroke-width:0.5;stroke-dasharray:5.0,5.0;" x1="181.0723" x2="181.0723" y1="120.8906" y2="918.3438"/></g><g><title>S3 Storage</title><rect fill="#000000" fill-opacity="0.00000" height="797.4531" width="8" x="280.4702" y="120.8906"/><line style="stroke:#181818;stroke-width:0.5;stroke-dasharray:5.0,5.0;" x1="283.96" x2="283.96" y1="120.8906" y2="918.3438"/></g><g><title>Step 1:</title><rect fill="#000000" fill-opacity="0.00000" height="797.4531" width="8" x="448.4141" y="120.8906"/><line style="stroke:#181818;stroke-width:0.5;stroke-dasharray:5.0,5.0;" x1="452.1304" x2="452.1304" y1="120.8906" y2="918.3438"/></g><g><title>Step 2:</title><rect fill="#000000" fill-opacity="0.00000" height="797.4531" width="8" x="550.3472" y="120.8906"/><line style="stroke:#181818;stroke-width:0.5;stroke-dasharray:5.0,5.0;" x1="553.6978" x2="553.6978" y1="120.8906" y2="918.3438"/></g><g><title>Step 3:</title><rect fill="#000000" fill-opacity="0.00000" height="797.4531" width="8" x="642.0469" y="120.8906"/><line style="stroke:#181818;stroke-width:0.5;stroke-dasharray:5.0,5.0;" x1="645.9966" x2="645.9966" y1="120.8906" y2="918.3438"/></g><g class="participant participant-head" data-participant="U"><text fill="#000000" font-family="sans-serif" font-size="14" lengthAdjust="spacing" textLength="31.9102" x="5" y="117.5889">User</text><ellipse cx="23.9551" cy="53.0938" fill="#E2E2F0" rx="8" ry="8" style="stroke:#181818;stroke-width:0.5;"/><path d="M23.9551,61.0938 L23.9551,88.0938 M10.9551,69.0938 L36.9551,69.0938 M23.9551,88.0938 L10.9551,103.0938 M23.9551,88.0938 L36.9551,103.0938" fill="none" style="stroke:#181818;stroke-width:0.5;"/></g><g class="participant participant-tail" data-participant="U"><text fill="#000000" font-family="sans-serif" font-size="14" lengthAdjust="spacing" textLength="31.9102" x="5" y="930.3389">User</text><ellipse cx="23.9551" cy="942.1406" fill="#E2E2F0" rx="8" ry="8" style="stroke:#181818;stroke-width:0.5;"/><path d="M23.9551,950.1406 L23.9551,977.1406 M10.9551,958.1406 L36.9551,958.1406 M23.9551,977.1406 L10.9551,992.1406 M23.9551,977.1406 L36.9551,992.1406" fill="none" style="stroke:#181818;stroke-width:0.5;"/></g><g class="participant participant-head" data-participant="Argo"><rect fill="#E8F5E9" height="46.5938" rx="2.5" ry="2.5" style="stroke:#01579B;stroke-width:0.5;" width="102.8877" x="130.0723" y="73.2969"/><text fill="#000000" font-family="sans-serif" font-size="14" lengthAdjust="spacing" textLength="32.7852" x="165.1235" y="93.292">Argo</text><text fill="#000000" font-family="sans-serif" font-size="14" lengthAdjust="spacing" textLength="88.8877" x="137.0723" y="109.5889">Orchestrator</text></g><g class="participant participant-tail" data-participant="Argo"><rect fill="#E8F5E9" height="46.5938" rx="2.5" ry="2.5" style="stroke:#01579B;stroke-width:0.5;" width="102.8877" x="130.0723" y="917.3438"/><text fill="#000000" font-family="sans-serif" font-size="14" lengthAdjust="spacing" textLength="32.7852" x="165.1235" y="937.3389">Argo</text><text fill="#000000" font-family="sans-serif" font-size="14" lengthAdjust="spacing" textLength="88.8877" x="137.0723" y="953.6357">Orchestrator</text></g><g class="participant participant-head" data-participant="S3"><text fill="#000000" font-family="sans-serif" font-size="14" lengthAdjust="spacing" textLength="77.0205" x="242.96" y="101.292">S3 Storage</text><text fill="#000000" font-family="sans-serif" font-size="14" lengthAdjust="spacing" textLength="50.9141" x="256.0132" y="117.5889">(MinIO)</text><path d="M266.4702,52.2969 C266.4702,42.2969 284.4702,42.2969 284.4702,42.2969 C284.4702,42.2969 302.4702,42.2969 302.4702,52.2969 L302.4702,78.2969 C302.4702,88.2969 284.4702,88.2969 284.4702,88.2969 C284.4702,88.2969 266.4702,88.2969 266.4702,78.2969 L266.4702,52.2969" fill="#FFF3E0" style="stroke:#E65100;stroke-width:1.5;"/><path d="M266.4702,52.2969 C266.4702,62.2969 284.4702,62.2969 284.4702,62.2969 C284.4702,62.2969 302.4702,62.2969 302.4702,52.2969" fill="none" style="stroke:#E65100;stroke-width:1.5;"/></g><g class="participant participant-tail" data-participant="S3"><text fill="#000000" font-family="sans-serif" font-size="14" lengthAdjust="spacing" textLength="77.0205" x="242.96" y="930.3389">S3 Storage</text><text fill="#000000" font-family="sans-serif" font-size="14" lengthAdjust="spacing" textLength="50.9141" x="256.0132" y="946.6357">(MinIO)</text><path d="M266.4702,959.9375 C266.4702,949.9375 284.4702,949.9375 284.4702,949.9375 C284.4702,949.9375 302.4702,949.9375 302.4702,959.9375 L302.4702,985.9375 C302.4702,995.9375 284.4702,995.9375 284.4702,995.9375 C284.4702,995.9375 266.4702,995.9375 266.4702,985.9375 L266.4702,959.9375" fill="#FFF3E0" style="stroke:#E65100;stroke-width:1.5;"/><path d="M266.4702,959.9375 C266.4702,969.9375 284.4702,969.9375 284.4702,969.9375 C284.4702,969.9375 302.4702,969.9375 302.4702,959.9375" fill="none" style="stroke:#E65100;stroke-width:1.5;"/></g><g class="participant participant-head" data-participant="S1"><rect fill="#E1F5FE" height="46.5938" rx="2.5" ry="2.5" style="stroke:#01579B;stroke-width:0.5;" width="112.5674" x="396.1304" y="73.2969"/><text fill="#000000" font-family="sans-serif" font-size="14" lengthAdjust="spacing" textLength="49.9502" x="427.439" y="93.292">Step 1:</text><text fill="#000000" font-family="sans-serif" font-size="14" lengthAdjust="spacing" textLength="98.5674" x="403.1304" y="109.5889">Preprocessing</text></g><g class="participant participant-tail" data-participant="S1"><rect fill="#E1F5FE" height="46.5938" rx="2.5" ry="2.5" style="stroke:#01579B;stroke-width:0.5;" width="112.5674" x="396.1304" y="917.3438"/><text fill="#000000" font-family="sans-serif" font-size="14" lengthAdjust="spacing" textLength="49.9502" x="427.439" y="937.3389">Step 1:</text><text fill="#000000" font-family="sans-serif" font-size="14" lengthAdjust="spacing" textLength="98.5674" x="403.1304" y="953.6357">Preprocessing</text></g><g class="participant participant-head" data-participant="S2"><rect fill="#E1F5FE" height="46.5938" rx="2.5" ry="2.5" style="stroke:#01579B;stroke-width:0.5;" width="71.2988" x="518.6978" y="73.2969"/><text fill="#000000" font-family="sans-serif" font-size="14" lengthAdjust="spacing" textLength="49.9502" x="529.3721" y="93.292">Step 2:</text><text fill="#000000" font-family="sans-serif" font-size="14" lengthAdjust="spacing" textLength="57.2988" x="525.6978" y="109.5889">Training</text></g><g class="participant participant-tail" data-participant="S2"><rect fill="#E1F5FE" height="46.5938" rx="2.5" ry="2.5" style="stroke:#01579B;stroke-width:0.5;" width="71.2988" x="518.6978" y="917.3438"/><text fill="#000000" font-family="sans-serif" font-size="14" lengthAdjust="spacing" textLength="49.9502" x="529.3721" y="937.3389">Step 2:</text><text fill="#000000" font-family="sans-serif" font-size="14" lengthAdjust="spacing" textLength="57.2988" x="525.6978" y="953.6357">Training</text></g><g class="participant participant-head" data-participant="S3b"><rect fill="#E1F5FE" height="46.5938" rx="2.5" ry="2.5" style="stroke:#01579B;stroke-width:0.5;" width="92.1006" x="599.9966" y="73.2969"/><text fill="#000000" font-family="sans-serif" font-size="14" lengthAdjust="spacing" textLength="49.9502" x="621.0718" y="93.292">Step 3:</text><text fill="#000000" font-family="sans-serif" font-size="14" lengthAdjust="spacing" textLength="78.1006" x="606.9966" y="109.5889">Generation</text></g><g class="participant participant-tail" data-participant="S3b"><rect fill="#E1F5FE" height="46.5938" rx="2.5" ry="2.5" style="stroke:#01579B;stroke-width:0.5;" width="92.1006" x="599.9966" y="917.3438"/><text fill="#000000" font-family="sans-serif" font-size="14" lengthAdjust="spacing" textLength="49.9502" x="621.0718" y="937.3389">Step 3:</text><text fill="#000000" font-family="sans-serif" font-size="14" lengthAdjust="spacing" textLength="78.1006" x="606.9966" y="953.6357">Generation</text></g><g><title>Step 1:</title><rect fill="#FFFFFF" height="58.2656" style="stroke:#181818;stroke-width:1;" width="10" x="447.4141" y="296.5547"/></g><g><title>Step 2:</title><rect fill="#FFFFFF" height="58.2656" style="stroke:#181818;stroke-width:1;" width="10" x="549.3472" y="456.2188"/></g><g><title>Step 3:</title><rect fill="#FFFFFF" height="58.2656" style="stroke:#181818;stroke-width:1;" width="10" x="641.0469" y="615.8828"/></g><rect fill="#EEEEEE" height="3" style="stroke:#EEEEEE;stroke-width:1;" width="697.0972" x="0" y="151.457"/><line style="stroke:#000000;stroke-width:1;" x1="0" x2="697.0972" y1="151.457" y2="151.457"/><line style="stroke:#000000;stroke-width:1;" x1="0" x2="697.0972" y1="154.457" y2="154.457"/><rect fill="#EEEEEE" height="23.1328" style="stroke:#000000;stroke-width:2;" width="110.624" x="293.2366" y="140.8906"/><text fill="#000000" font-family="sans-serif" font-size="13" font-weight="bold" lengthAdjust="spacing" textLength="92.0981" x="299.2366" y="156.9575">Initialization</text><g class="message" data-participant-1="U" data-participant-2="S3"><polygon fill="#181818" points="272.4702,191.1563,282.4702,195.1563,272.4702,199.1563,276.4702,195.1563" style="stroke:#181818;stroke-width:1;"/><line style="stroke:#181818;stroke-width:1;" x1="23.9551" x2="278.4702" y1="195.1563" y2="195.1563"/><text fill="#000000" font-family="sans-serif" font-size="13" lengthAdjust="spacing" textLength="116.5366" x="30.9551" y="190.0903">Upload input data</text></g><g class="message" data-participant-1="U" data-participant-2="Argo"><polygon fill="#181818" points="169.5161,220.2891,179.5161,224.2891,169.5161,228.2891,173.5161,224.2891" style="stroke:#181818;stroke-width:1;"/><line style="stroke:#181818;stroke-width:1;" x1="23.9551" x2="175.5161" y1="224.2891" y2="224.2891"/><text fill="#000000" font-family="sans-serif" font-size="13" lengthAdjust="spacing" textLength="108.4814" x="30.9551" y="219.2231">Submit workflow</text></g><rect fill="#EEEEEE" height="3" style="stroke:#EEEEEE;stroke-width:1;" width="697.0972" x="0" y="252.8555"/><line style="stroke:#000000;stroke-width:1;" x1="0" x2="697.0972" y1="252.8555" y2="252.8555"/><line style="stroke:#000000;stroke-width:1;" x1="0" x2="697.0972" y1="255.8555" y2="255.8555"/><rect fill="#EEEEEE" height="23.1328" style="stroke:#000000;stroke-width:2;" width="179.9404" x="258.5784" y="242.2891"/><text fill="#000000" font-family="sans-serif" font-size="13" font-weight="bold" lengthAdjust="spacing" textLength="161.4146" x="264.5784" y="258.356">Step 1: Preprocessing</text><g class="message" data-participant-1="Argo" data-participant-2="S1"><polygon fill="#181818" points="435.4141,292.5547,445.4141,296.5547,435.4141,300.5547,439.4141,296.5547" style="stroke:#181818;stroke-width:1;"/><line style="stroke:#181818;stroke-width:1;" x1="181.5161" x2="441.4141" y1="296.5547" y2="296.5547"/><text fill="#000000" font-family="sans-serif" font-size="13" lengthAdjust="spacing" textLength="60.3472" x="188.5161" y="291.4888">Start pod</text></g><g class="message" data-participant-1="S3" data-participant-2="S1"><polygon fill="#181818" points="435.4141,321.6875,445.4141,325.6875,435.4141,329.6875,439.4141,325.6875" style="stroke:#181818;stroke-width:1;"/><line style="stroke:#181818;stroke-width:1;" x1="284.4702" x2="441.4141" y1="325.6875" y2="325.6875"/><text fill="#000000" font-family="sans-serif" font-size="13" lengthAdjust="spacing" textLength="129.2573" x="291.4702" y="320.6216">Mount input artifact</text></g><g class="message" data-participant-1="S1" data-participant-2="S3"><polygon fill="#181818" points="295.4702,350.8203,285.4702,354.8203,295.4702,358.8203,291.4702,354.8203" style="stroke:#181818;stroke-width:1;"/><line style="stroke:#181818;stroke-width:1;" x1="289.4702" x2="451.4141" y1="354.8203" y2="354.8203"/><text fill="#000000" font-family="sans-serif" font-size="13" lengthAdjust="spacing" textLength="138.9438" x="301.4702" y="349.7544">Write processed data</text></g><g class="message" data-participant-1="S1" data-participant-2="Argo"><polygon fill="#181818" points="192.5161,379.9531,182.5161,383.9531,192.5161,387.9531,188.5161,383.9531" style="stroke:#181818;stroke-width:1;"/><line style="stroke:#181818;stroke-width:1;" x1="186.5161" x2="451.4141" y1="383.9531" y2="383.9531"/><text fill="#000000" font-family="sans-serif" font-size="13" lengthAdjust="spacing" textLength="62.6514" x="198.5161" y="378.8872">Complete</text></g><rect fill="#EEEEEE" height="3" style="stroke:#EEEEEE;stroke-width:1;" width="697.0972" x="0" y="412.5195"/><line style="stroke:#000000;stroke-width:1;" x1="0" x2="697.0972" y1="412.5195" y2="412.5195"/><line style="stroke:#000000;stroke-width:1;" x1="0" x2="697.0972" y1="415.5195" y2="415.5195"/><rect fill="#EEEEEE" height="23.1328" style="stroke:#000000;stroke-width:2;" width="136.3003" x="280.3984" y="401.9531"/><text fill="#000000" font-family="sans-serif" font-size="13" font-weight="bold" lengthAdjust="spacing" textLength="117.7744" x="286.3984" y="418.02">Step 2: Training</text><g class="message" data-participant-1="Argo" data-participant-2="S2"><polygon fill="#181818" points="537.3472,452.2188,547.3472,456.2188,537.3472,460.2188,541.3472,456.2188" style="stroke:#181818;stroke-width:1;"/><line style="stroke:#181818;stroke-width:1;" x1="181.5161" x2="543.3472" y1="456.2188" y2="456.2188"/><text fill="#000000" font-family="sans-serif" font-size="13" lengthAdjust="spacing" textLength="196.8472" x="188.5161" y="451.1528">Start pod (depends on Step 1)</text></g><g class="message" data-participant-1="S3" data-participant-2="S2"><polygon fill="#181818" points="537.3472,481.3516,547.3472,485.3516,537.3472,489.3516,541.3472,485.3516" style="stroke:#181818;stroke-width:1;"/><line style="stroke:#181818;stroke-width:1;" x1="284.4702" x2="543.3472" y1="485.3516" y2="485.3516"/><text fill="#000000" font-family="sans-serif" font-size="13" lengthAdjust="spacing" textLength="144.7837" x="291.4702" y="480.2856">Mount processed data</text></g><g class="message" data-participant-1="S2" data-participant-2="S3"><polygon fill="#181818" points="295.4702,510.4844,285.4702,514.4844,295.4702,518.4844,291.4702,514.4844" style="stroke:#181818;stroke-width:1;"/><line style="stroke:#181818;stroke-width:1;" x1="289.4702" x2="553.3472" y1="514.4844" y2="514.4844"/><text fill="#000000" font-family="sans-serif" font-size="13" lengthAdjust="spacing" textLength="130.1587" x="301.4702" y="509.4185">Write trained model</text></g><g class="message" data-participant-1="S2" data-participant-2="Argo"><polygon fill="#181818" points="192.5161,539.6172,182.5161,543.6172,192.5161,547.6172,188.5161,543.6172" style="stroke:#181818;stroke-width:1;"/><line style="stroke:#181818;stroke-width:1;" x1="186.5161" x2="553.3472" y1="543.6172" y2="543.6172"/><text fill="#000000" font-family="sans-serif" font-size="13" lengthAdjust="spacing" textLength="62.6514" x="198.5161" y="538.5513">Complete</text></g><rect fill="#EEEEEE" height="3" style="stroke:#EEEEEE;stroke-width:1;" width="697.0972" x="0" y="572.1836"/><line style="stroke:#000000;stroke-width:1;" x1="0" x2="697.0972" y1="572.1836" y2="572.1836"/><line style="stroke:#000000;stroke-width:1;" x1="0" x2="697.0972" y1="575.1836" y2="575.1836"/><rect fill="#EEEEEE" height="23.1328" style="stroke:#000000;stroke-width:2;" width="157.1206" x="269.9883" y="561.6172"/><text fill="#000000" font-family="sans-serif" font-size="13" font-weight="bold" lengthAdjust="spacing" textLength="138.5947" x="275.9883" y="577.6841">Step 3: Generation</text><g class="message" data-participant-1="Argo" data-participant-2="S3b"><polygon fill="#181818" points="629.0469,611.8828,639.0469,615.8828,629.0469,619.8828,633.0469,615.8828" style="stroke:#181818;stroke-width:1;"/><line style="stroke:#181818;stroke-width:1;" x1="181.5161" x2="635.0469" y1="615.8828" y2="615.8828"/><text fill="#000000" font-family="sans-serif" font-size="13" lengthAdjust="spacing" textLength="196.8472" x="188.5161" y="610.8169">Start pod (depends on Step 2)</text></g><g class="message" data-participant-1="S3" data-participant-2="S3b"><polygon fill="#181818" points="629.0469,641.0156,639.0469,645.0156,629.0469,649.0156,633.0469,645.0156" style="stroke:#181818;stroke-width:1;"/><line style="stroke:#181818;stroke-width:1;" x1="284.4702" x2="635.0469" y1="645.0156" y2="645.0156"/><text fill="#000000" font-family="sans-serif" font-size="13" lengthAdjust="spacing" textLength="135.9985" x="291.4702" y="639.9497">Mount trained model</text></g><g class="message" data-participant-1="S3b" data-participant-2="S3"><polygon fill="#181818" points="295.4702,670.1484,285.4702,674.1484,295.4702,678.1484,291.4702,674.1484" style="stroke:#181818;stroke-width:1;"/><line style="stroke:#181818;stroke-width:1;" x1="289.4702" x2="645.0469" y1="674.1484" y2="674.1484"/><text fill="#000000" font-family="sans-serif" font-size="13" lengthAdjust="spacing" textLength="132.3486" x="301.4702" y="669.0825">Write synthetic data</text></g><g class="message" data-participant-1="S3b" data-participant-2="Argo"><polygon fill="#181818" points="192.5161,699.2813,182.5161,703.2813,192.5161,707.2813,188.5161,703.2813" style="stroke:#181818;stroke-width:1;"/><line style="stroke:#181818;stroke-width:1;" x1="186.5161" x2="645.0469" y1="703.2813" y2="703.2813"/><text fill="#000000" font-family="sans-serif" font-size="13" lengthAdjust="spacing" textLength="62.6514" x="198.5161" y="698.2153">Complete</text></g><rect fill="#EEEEEE" height="3" style="stroke:#EEEEEE;stroke-width:1;" width="697.0972" x="0" y="731.8477"/><line style="stroke:#000000;stroke-width:1;" x1="0" x2="697.0972" y1="731.8477" y2="731.8477"/><line style="stroke:#000000;stroke-width:1;" x1="0" x2="697.0972" y1="734.8477" y2="734.8477"/><rect fill="#EEEEEE" height="23.1328" style="stroke:#000000;stroke-width:2;" width="72.7539" x="312.1716" y="721.2813"/><text fill="#000000" font-family="sans-serif" font-size="13" font-weight="bold" lengthAdjust="spacing" textLength="54.228" x="318.1716" y="737.3481">Results</text><g class="message" data-participant-1="Argo" data-participant-2="U"><polygon fill="#181818" points="34.9551,771.5469,24.9551,775.5469,34.9551,779.5469,30.9551,775.5469" style="stroke:#181818;stroke-width:1;"/><line style="stroke:#181818;stroke-width:1;" x1="28.9551" x2="180.5161" y1="775.5469" y2="775.5469"/><text fill="#000000" font-family="sans-serif" font-size="13" lengthAdjust="spacing" textLength="133.561" x="40.9551" y="770.481">Workflow completed</text></g><g class="message" data-participant-1="U" data-participant-2="S3"><polygon fill="#181818" points="272.4702,800.6797,282.4702,804.6797,272.4702,808.6797,276.4702,804.6797" style="stroke:#181818;stroke-width:1;"/><line style="stroke:#181818;stroke-width:1;" x1="23.9551" x2="278.4702" y1="804.6797" y2="804.6797"/><text fill="#000000" font-family="sans-serif" font-size="13" lengthAdjust="spacing" textLength="112.5884" x="30.9551" y="799.6138">Download results</text></g><path d="M289,817.6797 L289,902.6797 L486,902.6797 L486,827.6797 L476,817.6797 L289,817.6797" fill="#FEFFDD" style="stroke:#181818;stroke-width:0.5;"/><path d="M476,817.6797 L476,827.6797 L486,827.6797 L476,817.6797" fill="#FEFFDD" style="stroke:#181818;stroke-width:0.5;"/><text fill="#000000" font-family="sans-serif" font-size="13" font-weight="bold" lengthAdjust="spacing" textLength="83.2114" x="295" y="834.7466">Key Points:</text><text fill="#000000" font-family="sans-serif" font-size="13" lengthAdjust="spacing" textLength="175.7285" x="295" y="849.8794">&#8226; No direct communication</text><text fill="#000000" font-family="sans-serif" font-size="13" lengthAdjust="spacing" textLength="128.7178" x="303.2646" y="865.0122">between containers</text><text fill="#000000" font-family="sans-serif" font-size="13" lengthAdjust="spacing" textLength="175.1636" x="295" y="880.145">&#8226; All data flows through S3</text><text fill="#000000" font-family="sans-serif" font-size="13" lengthAdjust="spacing" textLength="176.4458" x="295" y="895.2778">&#8226; Each step is independent</text><!--SRC=[VPJ1Qjj048Rl-nI3UqaC0Kl6RMDmmKdQ4aeQKzVquijA6jcBvLsnEwv9Iw3FqaVhatHsjNQa9guF5kpyyyytioEHeWfXQacLCYUOIUUKNl6J2As62xYH9E53PVPmXRH7r30dh9qGRgDqBQtS0l-JobKjDS5F0VoxalbcPSrE5zUcCXPUOLAEIcnYnXPeu_aW6RsvpCHZowtWWfbqUCggBCiX3fvRuUjHCXYmbU16-63Xq89qi11jljxKhinItzjyZOwiP6NFg_mnUxmjHtWfZWYz-P3RDLQkSAdFxfI-lJyFylcmw-fd0ibugMSMQsjo36DifCaBqfIbNwrK-gXANr0DMVKHDJAcCZeMpeIOJE1MArAoKZz222OJiO2BTno6CIpgoiW2UA0x2kDiOg75CSntsLOHx8tTb7ojmItYGuVUcuOSxvluJ692g4tX9wo-IqBV79Sy2ExucYZMbN6b14SEOD-iufnO0Ok6hS2EMz92lJRRkaB29yPq38UnTV3IDXwS5LYZBXmO7LixRo6d1-JqYFmF4aUwoEHhSdHh2gmwn6aKdoGUZk7f2ZlCm-p_q6aRcgyzKeUq1hkBvIDTRFUWQOsyLCyd7VooK-HVqEqgSctSXNUDEmDv51UjhRinUntspZR9GcZ3bQnQhGbCwLyPW7x_4px0p2XDRjplyycVNx_Xiu52MUJl3njlTrhbOLhX7S_YLoStcdotriMaQLM5ji0JEQ0rVoHMwwQCZx-N-HgS7wHol9FDT56Ju0TujBy0]--></g></svg>