<svg xmlns="http://www.w3.org/2000/svg" xmlns:xlink="http://www.w3.org/1999/xlink" contentStyleType="text/css" data-diagram-type="DESCRIPTION" height="542px" preserveAspectRatio="none" style="width:703px;height:542px;background:#FFFFFF;" version="1.1" viewBox="0 0 703 542" width="703px" zoomAndPan="magnify"><title>Target Services Architecture</title><defs/><g><text fill="#000000" font-family="sans-serif" font-size="14" font-weight="bold" lengthAdjust="spacing" textLength="226.7412" x="231.4594" y="22.9951">Target Services Architecture</text><!--cluster entry--><g class="cluster" data-entity="entry" data-source-line="21" data-uid="ent0002" id="cluster_entry"><rect fill="none" height="113" rx="5" ry="5" style="stroke:#181818;stroke-width:1;" width="160.44" x="7" y="223.2969"/><text fill="#000000" font-family="sans-serif" font-size="14" font-weight="bold" lengthAdjust="spacing" textLength="91.0205" x="41.7097" y="238.292">Entry Layer</text></g><!--cluster core--><g class="cluster" data-entity="core" data-source-line="26" data-uid="ent0004" id="cluster_core"><rect fill="none" height="471" rx="5" ry="5" style="stroke:#181818;stroke-width:1;" width="141.14" x="195.44" y="44.2969"/><text fill="#000000" font-family="sans-serif" font-size="14" font-weight="bold" lengthAdjust="spacing" textLength="107.7002" x="212.1599" y="59.292">Core Services</text></g><!--cluster support--><g class="cluster" data-entity="support" data-source-line="34" data-uid="ent0009" id="cluster_support"><rect fill="none" height="357" rx="5" ry="5" style="stroke:#181818;stroke-width:1;" width="152.32" x="364.58" y="73.2969"/><text fill="#000000" font-family="sans-serif" font-size="14" font-weight="bold" lengthAdjust="spacing" textLength="134.7158" x="373.3821" y="88.292">Support Services</text></g><!--cluster external--><g class="cluster" data-entity="external" data-source-line="41" data-uid="ent0013" id="cluster_external"><rect fill="none" height="455" rx="5" ry="5" style="stroke:#181818;stroke-width:1;" width="152.76" x="544.9" y="81.2969"/><text fill="#000000" font-family="sans-serif" font-size="14" font-weight="bold" lengthAdjust="spacing" textLength="137.4229" x="552.5686" y="96.292">External Systems</text></g><!--entity gateway--><g class="entity" data-entity="gateway" data-source-line="22" data-uid="ent0003" id="entity_gateway"><rect fill="#2196F3" height="62.5938" rx="2.5" ry="2.5" style="stroke:#181818;stroke-width:0.5;" width="128.4434" x="23" y="257.9969"/><rect fill="#2196F3" height="10" style="stroke:#181818;stroke-width:0.5;" width="15" x="131.4434" y="262.9969"/><rect fill="#2196F3" height="2" style="stroke:#181818;stroke-width:0.5;" width="4" x="129.4434" y="264.9969"/><rect fill="#2196F3" height="2" style="stroke:#181818;stroke-width:0.5;" width="4" x="129.4434" y="268.9969"/><text fill="#FFFFFF" font-family="sans-serif" font-size="14" font-style="italic" lengthAdjust="spacing" textLength="77.0137" x="43.7148" y="290.992">&#171;gateway&#187;</text><text fill="#FFFFFF" font-family="sans-serif" font-size="14" lengthAdjust="spacing" textLength="88.4434" x="38" y="307.2889">API Gateway</text></g><!--entity auth--><g class="entity" data-entity="auth" data-source-line="27" data-uid="ent0005" id="entity_auth"><rect fill="#4CAF50" height="78.8906" rx="2.5" ry="2.5" style="stroke:#181818;stroke-width:0.5;" width="91.7412" x="220.14" y="78.8469"/><rect fill="#4CAF50" height="10" style="stroke:#181818;stroke-width:0.5;" width="15" x="291.8812" y="83.8469"/><rect fill="#4CAF50" height="2" style="stroke:#181818;stroke-width:0.5;" width="4" x="289.8812" y="85.8469"/><rect fill="#4CAF50" height="2" style="stroke:#181818;stroke-width:0.5;" width="4" x="289.8812" y="89.8469"/><text fill="#FFFFFF" font-family="sans-serif" font-size="14" font-style="italic" lengthAdjust="spacing" textLength="47.7627" x="237.1293" y="111.842">&#171;core&#187;</text><text fill="#FFFFFF" font-family="sans-serif" font-size="14" lengthAdjust="spacing" textLength="32.8125" x="235.14" y="128.1389">Auth</text><text fill="#FFFFFF" font-family="sans-serif" font-size="14" lengthAdjust="spacing" textLength="51.7412" x="235.14" y="144.4357">Service</text></g><!--entity workflow--><g class="entity" data-entity="workflow" data-source-line="28" data-uid="ent0006" id="entity_workflow"><rect fill="#4CAF50" height="78.8906" rx="2.5" ry="2.5" style="stroke:#181818;stroke-width:0.5;" width="105.1055" x="213.46" y="192.8469"/><rect fill="#4CAF50" height="10" style="stroke:#181818;stroke-width:0.5;" width="15" x="298.5655" y="197.8469"/><rect fill="#4CAF50" height="2" style="stroke:#181818;stroke-width:0.5;" width="4" x="296.5655" y="199.8469"/><rect fill="#4CAF50" height="2" style="stroke:#181818;stroke-width:0.5;" width="4" x="296.5655" y="203.8469"/><text fill="#FFFFFF" font-family="sans-serif" font-size="14" font-style="italic" lengthAdjust="spacing" textLength="47.7627" x="237.1314" y="225.842">&#171;core&#187;</text><text fill="#FFFFFF" font-family="sans-serif" font-size="14" lengthAdjust="spacing" textLength="65.1055" x="228.46" y="242.1389">Workflow</text><text fill="#FFFFFF" font-family="sans-serif" font-size="14" lengthAdjust="spacing" textLength="51.7412" x="228.46" y="258.4357">Service</text></g><!--entity execution--><g class="entity" data-entity="execution" data-source-line="29" data-uid="ent0007" id="entity_execution"><rect fill="#4CAF50" height="78.8906" rx="2.5" ry="2.5" style="stroke:#181818;stroke-width:0.5;" width="109.1318" x="211.44" y="306.8469"/><rect fill="#4CAF50" height="10" style="stroke:#181818;stroke-width:0.5;" width="15" x="300.5718" y="311.8469"/><rect fill="#4CAF50" height="2" style="stroke:#181818;stroke-width:0.5;" width="4" x="298.5718" y="313.8469"/><rect fill="#4CAF50" height="2" style="stroke:#181818;stroke-width:0.5;" width="4" x="298.5718" y="317.8469"/><text fill="#FFFFFF" font-family="sans-serif" font-size="14" font-style="italic" lengthAdjust="spacing" textLength="47.7627" x="237.1246" y="339.842">&#171;core&#187;</text><text fill="#FFFFFF" font-family="sans-serif" font-size="14" lengthAdjust="spacing" textLength="69.1318" x="226.44" y="356.1389">Execution</text><text fill="#FFFFFF" font-family="sans-serif" font-size="14" lengthAdjust="spacing" textLength="51.7412" x="226.44" y="372.4357">Service</text></g><!--entity artifact--><g class="entity" data-entity="artifact" data-source-line="30" data-uid="ent0008" id="entity_artifact"><rect fill="#4CAF50" height="78.8906" rx="2.5" ry="2.5" style="stroke:#181818;stroke-width:0.5;" width="91.7412" x="220.14" y="420.8469"/><rect fill="#4CAF50" height="10" style="stroke:#181818;stroke-width:0.5;" width="15" x="291.8812" y="425.8469"/><rect fill="#4CAF50" height="2" style="stroke:#181818;stroke-width:0.5;" width="4" x="289.8812" y="427.8469"/><rect fill="#4CAF50" height="2" style="stroke:#181818;stroke-width:0.5;" width="4" x="289.8812" y="431.8469"/><text fill="#FFFFFF" font-family="sans-serif" font-size="14" font-style="italic" lengthAdjust="spacing" textLength="47.7627" x="237.1293" y="453.842">&#171;core&#187;</text><text fill="#FFFFFF" font-family="sans-serif" font-size="14" lengthAdjust="spacing" textLength="51.4063" x="235.14" y="470.1389">Artifact</text><text fill="#FFFFFF" font-family="sans-serif" font-size="14" lengthAdjust="spacing" textLength="51.7412" x="235.14" y="486.4357">Service</text></g><!--entity catalog--><g class="entity" data-entity="catalog" data-source-line="35" data-uid="ent0010" id="entity_catalog"><rect fill="#FF9800" height="78.8906" rx="2.5" ry="2.5" style="stroke:#181818;stroke-width:0.5;" width="112.8818" x="384.3" y="107.8469"/><rect fill="#FF9800" height="10" style="stroke:#181818;stroke-width:0.5;" width="15" x="477.1818" y="112.8469"/><rect fill="#FF9800" height="2" style="stroke:#181818;stroke-width:0.5;" width="4" x="475.1818" y="114.8469"/><rect fill="#FF9800" height="2" style="stroke:#181818;stroke-width:0.5;" width="4" x="475.1818" y="118.8469"/><text fill="#FFFFFF" font-family="sans-serif" font-size="14" font-style="italic" lengthAdjust="spacing" textLength="70.8818" x="400.3" y="140.842">&#171;support&#187;</text><text fill="#FFFFFF" font-family="sans-serif" font-size="14" lengthAdjust="spacing" textLength="53.7646" x="408.8586" y="157.1389">Catalog</text><text fill="#FFFFFF" font-family="sans-serif" font-size="14" lengthAdjust="spacing" textLength="51.7412" x="408.8586" y="173.4357">Service</text></g><!--entity metadata--><g class="entity" data-entity="metadata" data-source-line="36" data-uid="ent0011" id="entity_metadata"><rect fill="#FF9800" height="78.8906" rx="2.5" ry="2.5" style="stroke:#181818;stroke-width:0.5;" width="112.8818" x="384.3" y="221.8469"/><rect fill="#FF9800" height="10" style="stroke:#181818;stroke-width:0.5;" width="15" x="477.1818" y="226.8469"/><rect fill="#FF9800" height="2" style="stroke:#181818;stroke-width:0.5;" width="4" x="475.1818" y="228.8469"/><rect fill="#FF9800" height="2" style="stroke:#181818;stroke-width:0.5;" width="4" x="475.1818" y="232.8469"/><text fill="#FFFFFF" font-family="sans-serif" font-size="14" font-style="italic" lengthAdjust="spacing" textLength="70.8818" x="400.3" y="254.842">&#171;support&#187;</text><text fill="#FFFFFF" font-family="sans-serif" font-size="14" lengthAdjust="spacing" textLength="66.2949" x="402.5935" y="271.1389">Metadata</text><text fill="#FFFFFF" font-family="sans-serif" font-size="14" lengthAdjust="spacing" textLength="51.7412" x="402.5935" y="287.4357">Service</text></g><!--entity notification--><g class="entity" data-entity="notification" data-source-line="37" data-uid="ent0012" id="entity_notification"><rect fill="#FF9800" height="78.8906" rx="2.5" ry="2.5" style="stroke:#181818;stroke-width:0.5;" width="120.3291" x="380.58" y="335.8469"/><rect fill="#FF9800" height="10" style="stroke:#181818;stroke-width:0.5;" width="15" x="480.9091" y="340.8469"/><rect fill="#FF9800" height="2" style="stroke:#181818;stroke-width:0.5;" width="4" x="478.9091" y="342.8469"/><rect fill="#FF9800" height="2" style="stroke:#181818;stroke-width:0.5;" width="4" x="478.9091" y="346.8469"/><text fill="#FFFFFF" font-family="sans-serif" font-size="14" font-style="italic" lengthAdjust="spacing" textLength="70.8818" x="400.3036" y="368.842">&#171;support&#187;</text><text fill="#FFFFFF" font-family="sans-serif" font-size="14" lengthAdjust="spacing" textLength="80.3291" x="395.58" y="385.1389">Notification</text><text fill="#FFFFFF" font-family="sans-serif" font-size="14" lengthAdjust="spacing" textLength="51.7412" x="395.58" y="401.4357">Service</text></g><!--entity idp--><g class="entity" data-entity="idp" data-source-line="42" data-uid="ent0014" id="entity_idp"><rect fill="#607D8B" height="78.8906" rx="2.5" ry="2.5" style="stroke:#181818;stroke-width:0.5;" width="117.2295" x="562.67" y="115.8469"/><rect fill="#607D8B" height="10" style="stroke:#181818;stroke-width:0.5;" width="15" x="659.8995" y="120.8469"/><rect fill="#607D8B" height="2" style="stroke:#181818;stroke-width:0.5;" width="4" x="657.8995" y="122.8469"/><rect fill="#607D8B" height="2" style="stroke:#181818;stroke-width:0.5;" width="4" x="657.8995" y="126.8469"/><text fill="#FFFFFF" font-family="sans-serif" font-size="14" font-style="italic" lengthAdjust="spacing" textLength="75.2295" x="578.67" y="148.842">&#171;external&#187;</text><text fill="#FFFFFF" font-family="sans-serif" font-size="14" lengthAdjust="spacing" textLength="53.6553" x="587.1876" y="165.1389">Identity</text><text fill="#FFFFFF" font-family="sans-serif" font-size="14" lengthAdjust="spacing" textLength="58.1943" x="587.1876" y="181.4357">Provider</text></g><!--entity postgres--><g class="entity" data-entity="postgres" data-source-line="43" data-uid="ent0015" id="entity_postgres"><rect fill="#607D8B" height="62.5938" rx="2.5" ry="2.5" style="stroke:#181818;stroke-width:0.5;" width="120.7529" x="560.9" y="229.9969"/><rect fill="#607D8B" height="10" style="stroke:#181818;stroke-width:0.5;" width="15" x="661.6529" y="234.9969"/><rect fill="#607D8B" height="2" style="stroke:#181818;stroke-width:0.5;" width="4" x="659.6529" y="236.9969"/><rect fill="#607D8B" height="2" style="stroke:#181818;stroke-width:0.5;" width="4" x="659.6529" y="240.9969"/><text fill="#FFFFFF" font-family="sans-serif" font-size="14" font-style="italic" lengthAdjust="spacing" textLength="75.2295" x="578.6617" y="262.992">&#171;external&#187;</text><text fill="#FFFFFF" font-family="sans-serif" font-size="14" lengthAdjust="spacing" textLength="80.7529" x="575.9" y="279.2889">PostgreSQL</text></g><!--entity argo--><g class="entity" data-entity="argo" data-source-line="44" data-uid="ent0016" id="entity_argo"><rect fill="#607D8B" height="78.8906" rx="2.5" ry="2.5" style="stroke:#181818;stroke-width:0.5;" width="117.2295" x="562.67" y="327.8469"/><rect fill="#607D8B" height="10" style="stroke:#181818;stroke-width:0.5;" width="15" x="659.8995" y="332.8469"/><rect fill="#607D8B" height="2" style="stroke:#181818;stroke-width:0.5;" width="4" x="657.8995" y="334.8469"/><rect fill="#607D8B" height="2" style="stroke:#181818;stroke-width:0.5;" width="4" x="657.8995" y="338.8469"/><text fill="#FFFFFF" font-family="sans-serif" font-size="14" font-style="italic" lengthAdjust="spacing" textLength="75.2295" x="578.67" y="360.842">&#171;external&#187;</text><text fill="#FFFFFF" font-family="sans-serif" font-size="14" lengthAdjust="spacing" textLength="32.7852" x="580.085" y="377.1389">Argo</text><text fill="#FFFFFF" font-family="sans-serif" font-size="14" lengthAdjust="spacing" textLength="72.3994" x="580.085" y="393.4357">Workflows</text></g><!--entity minio--><g class="entity" data-entity="minio" data-source-line="45" data-uid="ent0017" id="entity_minio"><rect fill="#607D8B" height="78.8906" rx="2.5" ry="2.5" style="stroke:#181818;stroke-width:0.5;" width="117.2295" x="562.67" y="441.8469"/><rect fill="#607D8B" height="10" style="stroke:#181818;stroke-width:0.5;" width="15" x="659.8995" y="446.8469"/><rect fill="#607D8B" height="2" style="stroke:#181818;stroke-width:0.5;" width="4" x="657.8995" y="448.8469"/><rect fill="#607D8B" height="2" style="stroke:#181818;stroke-width:0.5;" width="4" x="657.8995" y="452.8469"/><text fill="#FFFFFF" font-family="sans-serif" font-size="14" font-style="italic" lengthAdjust="spacing" textLength="75.2295" x="578.67" y="474.842">&#171;external&#187;</text><text fill="#FFFFFF" font-family="sans-serif" font-size="14" lengthAdjust="spacing" textLength="39.9902" x="596.2896" y="491.1389">MinIO</text><text fill="#FFFFFF" font-family="sans-serif" font-size="14" lengthAdjust="spacing" textLength="28.7178" x="596.2896" y="507.4357">(S3)</text></g><!--link gateway to auth--><g class="link" data-entity-1="gateway" data-entity-2="auth" data-source-line="50" data-uid="lnk18" id="link_gateway_auth"><path d="M87.66,257.5369 C87.66,208.0869 87.66,118.2969 87.66,118.2969 C87.66,118.2969 161.23,118.2969 214.08,118.2969" fill="none" id="gateway-to-auth" style="stroke:#181818;stroke-width:1;"/><polygon fill="#181818" points="220.08,118.2969,211.08,114.2969,215.08,118.2969,211.08,122.2969,220.08,118.2969" style="stroke:#181818;stroke-width:1;"/></g><!--link gateway to workflow--><g class="link" data-entity-1="gateway" data-entity-2="workflow" data-source-line="51" data-uid="lnk19" id="link_gateway_workflow"><path d="M151.77,264.8669 C171.87,264.8669 187.8,264.8669 207.02,264.8669" fill="none" id="gateway-to-workflow" style="stroke:#181818;stroke-width:1;"/><polygon fill="#181818" points="213.02,264.8669,204.02,260.8669,208.02,264.8669,204.02,268.8669,213.02,264.8669" style="stroke:#181818;stroke-width:1;"/></g><!--link gateway to execution--><g class="link" data-entity-1="gateway" data-entity-2="execution" data-source-line="52" data-uid="lnk20" id="link_gateway_execution"><path d="M151.77,313.7269 C171.17,313.7269 186.27,313.7269 205,313.7269" fill="none" id="gateway-to-execution" style="stroke:#181818;stroke-width:1;"/><polygon fill="#181818" points="211,313.7269,202,309.7269,206,313.7269,202,317.7269,211,313.7269" style="stroke:#181818;stroke-width:1;"/></g><!--link gateway to artifact--><g class="link" data-entity-1="gateway" data-entity-2="artifact" data-source-line="53" data-uid="lnk21" id="link_gateway_artifact"><path d="M87.66,321.0569 C87.66,370.5069 87.66,460.2969 87.66,460.2969 C87.66,460.2969 161.23,460.2969 214.08,460.2969" fill="none" id="gateway-to-artifact" style="stroke:#181818;stroke-width:1;"/><polygon fill="#181818" points="220.08,460.2969,211.08,456.2969,215.08,460.2969,211.08,464.2969,220.08,460.2969" style="stroke:#181818;stroke-width:1;"/></g><!--link workflow to catalog--><g class="link" data-entity-1="workflow" data-entity-2="catalog" data-source-line="56" data-uid="lnk22" id="link_workflow_catalog"><path d="M266.66,192.5769 C266.66,181.4069 266.66,172.2469 266.66,172.2469 C266.66,172.2469 327.39,172.2469 378.22,172.2469" fill="none" id="workflow-to-catalog" style="stroke:#181818;stroke-width:1;"/><polygon fill="#181818" points="384.22,172.2469,375.22,168.2469,379.22,172.2469,375.22,176.2469,384.22,172.2469" style="stroke:#181818;stroke-width:1;"/><text fill="#000000" font-family="sans-serif" font-size="13" lengthAdjust="spacing" textLength="65.457" x="249.27" y="185.3138">templates</text></g><!--link execution to metadata--><g class="link" data-entity-1="execution" data-entity-2="metadata" data-source-line="57" data-uid="lnk23" id="link_execution_metadata"><path d="M320.62,317.3469 C372.18,317.3469 441.66,317.3469 441.66,317.3469 C441.66,317.3469 441.66,316.2669 441.66,307.1369" fill="none" id="execution-to-metadata" style="stroke:#181818;stroke-width:1;"/><polygon fill="#181818" points="441.66,301.1369,437.66,310.1369,441.66,306.1369,445.66,310.1369,441.66,301.1369" style="stroke:#181818;stroke-width:1;"/><text fill="#000000" font-family="sans-serif" font-size="13" lengthAdjust="spacing" textLength="48.8135" x="340.25" y="330.4138">records</text></g><!--link execution to notification--><g class="link" data-entity-1="execution" data-entity-2="notification" data-source-line="58" data-uid="lnk24" id="link_execution_notification"><path d="M320.82,360.7969 C339.73,360.7969 355.02,360.7969 374.36,360.7969" fill="none" id="execution-to-notification" style="stroke:#181818;stroke-width:1;"/><polygon fill="#181818" points="380.36,360.7969,371.36,356.7969,375.36,360.7969,371.36,364.7969,380.36,360.7969" style="stroke:#181818;stroke-width:1;"/><text fill="#000000" font-family="sans-serif" font-size="13" lengthAdjust="spacing" textLength="36.791" x="313.59" y="373.8638">alerts</text></g><!--link auth to idp--><g class="link" data-entity-1="auth" data-entity-2="idp" data-source-line="61" data-uid="lnk25" id="link_auth_idp"><path d="M312.14,93.3469 C408.37,93.3469 621.66,93.3469 621.66,93.3469 C621.66,93.3469 621.66,97.3769 621.66,109.3669" fill="none" id="auth-to-idp" style="stroke:#181818;stroke-width:1;"/><polygon fill="#181818" points="621.66,115.3669,625.66,106.3669,621.66,110.3669,617.66,106.3669,621.66,115.3669" style="stroke:#181818;stroke-width:1;"/><text fill="#000000" font-family="sans-serif" font-size="13" lengthAdjust="spacing" textLength="33.1538" x="478.91" y="102.1638">OIDC</text></g><!--link execution to argo--><g class="link" data-entity-1="execution" data-entity-2="argo" data-source-line="62" data-uid="lnk26" id="link_execution_argo"><path d="M320.74,331.8469 C386.14,331.8469 489.14,331.8469 556.34,331.8469" fill="none" id="execution-to-argo" style="stroke:#181818;stroke-width:1;"/><polygon fill="#181818" points="562.34,331.8469,553.34,327.8469,557.34,331.8469,553.34,335.8469,562.34,331.8469" style="stroke:#181818;stroke-width:1;"/><text fill="#000000" font-family="sans-serif" font-size="13" lengthAdjust="spacing" textLength="44.6367" x="396.54" y="327.9138">submit</text></g><!--link catalog to postgres--><g class="link" data-entity-1="catalog" data-entity-2="postgres" data-source-line="65" data-uid="lnk27" id="link_catalog_postgres"><path d="M497.54,151.2969 C515.92,151.2969 531.66,151.2969 531.66,151.2969 C531.66,151.2969 531.66,250.8669 531.66,250.8669 C531.66,250.8669 538.52,250.8669 554.51,250.8669" fill="none" id="catalog-to-postgres" style="stroke:#181818;stroke-width:1;"/><polygon fill="#181818" points="560.51,250.8669,551.51,246.8669,555.51,250.8669,551.51,254.8669,560.51,250.8669" style="stroke:#181818;stroke-width:1;"/><text fill="#000000" font-family="sans-serif" font-size="13" lengthAdjust="spacing" textLength="39.9395" x="491.66" y="211.5138">stores</text></g><!--link metadata to postgres--><g class="link" data-entity-1="metadata" data-entity-2="postgres" data-source-line="66" data-uid="lnk28" id="link_metadata_postgres"><path d="M497.37,271.7269 C517.43,271.7269 534.08,271.7269 554.47,271.7269" fill="none" id="metadata-to-postgres" style="stroke:#181818;stroke-width:1;"/><polygon fill="#181818" points="560.47,271.7269,551.47,267.7269,555.47,271.7269,551.47,275.7269,560.47,271.7269" style="stroke:#181818;stroke-width:1;"/><text fill="#000000" font-family="sans-serif" font-size="13" lengthAdjust="spacing" textLength="39.9395" x="488.92" y="284.7938">stores</text></g><!--link artifact to minio--><g class="link" data-entity-1="artifact" data-entity-2="minio" data-source-line="67" data-uid="lnk29" id="link_artifact_minio"><path d="M312.09,470.7969 C376.11,470.7969 486.01,470.7969 556.28,470.7969" fill="none" id="artifact-to-minio" style="stroke:#181818;stroke-width:1;"/><polygon fill="#181818" points="562.28,470.7969,553.28,466.7969,557.28,470.7969,553.28,474.7969,562.28,470.7969" style="stroke:#181818;stroke-width:1;"/><text fill="#000000" font-family="sans-serif" font-size="13" lengthAdjust="spacing" textLength="39.9395" x="397.18" y="483.8638">stores</text></g><!--SRC=[VLJVRzem47xtNt7g7hezLABhrX-egvHIs90eCCBKJUB5Iqom27Ra76tHrFzzjkC49w7a1NBtVNVsTzy5EQOCvbGb325awfb7B8T0HIkEBCAjOeIaR8c04XHFLWWnLph1fI3vcekCAhg1b0k6kuo1LBYInCiOB1M9xl6FW7wKt8gu9vLW2iuxvCs3HdAJIS44EkWzZTQ9mwTItTuc5DaBtTtTmOVFvpUNWmiB6qY1BS2JEVxXAf5Kp9JuqWi6NplD4YvxX9zliqnVqvGO36wkEwqIUy2HAkmLcH8qDMKkErSFr_VDCXwYgFD6o2byCm_qn_FPd-8_sIjyqXUeTZ2YEwPEWER0x7kXvbxTas0wXE-5L1RcP0DFGBzPRpBhjtlf6RBACBQCaUv0iosk5i81BOxg29HAD-5FKgsNgNofKrvSz5rQ_vL5MsFAEe-LuNU9WKA-f14sZkYYUvgdH_XhEftCvcr9mcBmTLMS6zh2z2ZIL2Rrnb4H1Cz5JTuZGnfhM9suST5ZpB7Kj-AwHKiduMLg5NpF_PxtP-DWTC1spgaGxd9aczn9xuAjYmzZ_SDnjn1J9PzvxCpAumnyrpTfKvbZebZuSsJXMV6Q7-K4Af4BKNegTxDDv57I8nV3oK9y32y-5T9omHiCJvPPVnJCXvDn-6Cu3Pqsfr1ielvccZKXvOATdTrPzzS2fRThmSguTQwpfUbkzqytSAOZrOeOO6cZBkXvPAakaPFzBXX4vPUk-KHB5JS1DKjqWQPCOUutBgTEx3uRYfbW5oR3XrwZbfMygrVXxuRRmvURufSfpsm8rN0r2NM_d5JdFPok5jRUpGwipFq7]--></g></svg>